<?xml version="1.0" encoding="UTF-8"?>
<svg version="1.1" xmlns="http://www.w3.org/2000/svg" width="500" height="500">
<path d="M0 0 C3 1 3 1 4.08740234 2.83496094 C4.41691895 3.62676758 4.74643555 4.41857422 5.0859375 5.234375 C5.64244995 6.55175659 5.64244995 6.55175659 6.21020508 7.89575195 C6.5945874 8.83765381 6.97896973 9.77955566 7.375 10.75 C7.97380981 12.18122192 7.97380981 12.18122192 8.5847168 13.64135742 C11.12648622 19.75204612 13.56807104 25.8938963 15.83203125 32.11328125 C16.75475056 34.39384836 17.74109602 36.51702837 18.85546875 38.703125 C21.30365582 43.51692479 23.39894374 48.46452214 25.5 53.4375 C27.96271722 59.24127557 30.44890384 65.02993001 33.02148438 70.78588867 C34.36315271 73.82171456 35.65070337 76.87945598 36.94189453 79.93701172 C42.24531296 92.46991702 47.92351023 104.8184875 53.67529297 117.15087891 C54.79472661 119.5585071 55.90364604 121.97029169 57.00390625 124.38671875 C60.22315378 131.43347548 63.710323 138.28658266 67.38354492 145.10375977 C70.61282084 151.14823236 73.57311673 157.30434825 76.5 163.5 C80.08437046 171.0868449 83.81340675 178.55101528 87.79907227 185.93408203 C90.34393854 190.67774464 92.68265761 195.48744019 94.9375 200.375 C98.88438143 208.91182725 103.24587602 217.20101238 107.67041016 225.49804688 C109.96777458 229.82110795 112.23215221 234.16140449 114.5 238.5 C118.42459979 245.99805117 122.3572131 253.49182327 126.30297852 260.97875977 C128.36164839 264.88506857 130.41616621 268.79342656 132.4609375 272.70703125 C138.92131423 285.05670168 145.55393415 297.30923464 152.38232422 309.4597168 C152.82721191 310.25289307 153.27209961 311.04606934 153.73046875 311.86328125 C154.13031982 312.57266846 154.5301709 313.28205566 154.94213867 314.01293945 C156 316 156 316 157.5 319.5625 C159.69538951 324.59360096 161.9263979 329.52492974 166.4765625 332.76171875 C169.69038729 335.61237138 170.70581263 338.65680675 172 342.625 C172.51206811 344.07287746 173.02769206 345.51950228 173.546875 346.96484375 C173.79501953 347.66206543 174.04316406 348.35928711 174.29882812 349.07763672 C177.33645282 357.40572057 182.10544882 363.99489402 187.5625 370.87890625 C192.42239188 377.10174858 196.48506755 383.74950219 200.5 390.53515625 C200.995 391.36917969 201.49 392.20320313 202 393.0625 C202.495 393.89910156 202.99 394.73570312 203.5 395.59765625 C204.93865228 397.98746534 204.93865228 397.98746534 206.55859375 400.03125 C210.57644588 405.51904803 212.08303089 411.77712987 212.8125 418.4375 C213.61282811 424.52571025 215.6948964 428.37277017 219.1796875 433.359375 C220.98485499 435.97802999 222.48947691 438.60764917 223.9375 441.4375 C224.33839844 442.21996094 224.73929687 443.00242187 225.15234375 443.80859375 C226 446 226 446 226 450 C225.34 450 224.68 450 224 450 C223.87625 450.61875 223.7525 451.2375 223.625 451.875 C223 454 223 454 221 456 C216.70078568 456.38215238 213.91143611 455.67632976 210 454 C207.33764413 453.30941239 204.67298664 452.64730297 202 452 C167.10008798 443.50139501 132.98473826 432.51949414 98.97589111 421.00852966 C94.64649745 419.54586791 90.30696705 418.11950286 85.95703125 416.71875 C75.96742422 413.49129193 66.34023313 410.11453316 56.92578125 405.4453125 C52.40373152 403.21145616 48.50166724 401.81343173 43.5 401.125 C37.63202153 400.07378461 34.81975456 398.58932367 31.328125 393.62109375 C30.1407334 391.87806378 28.97759909 390.11816839 27.84375 388.33984375 C23.98462722 383.44235531 19.24231349 382.33326303 13.3125 381.3125 C12.60351562 381.1880249 11.89453125 381.0635498 11.1640625 380.93530273 C2.09953082 379.42557939 -5.06966827 378.72377122 -13 384 C-14.38260344 385.07361252 -15.75758712 386.15710562 -17.125 387.25 C-19.83323959 389.35581621 -20.8803007 389.98005012 -24.375 390.5625 C-27 390 -27 390 -29 387 C-29.24412246 380.11795862 -27.19010878 373.44474692 -25.1875 366.9375 C-21.5153868 354.54246484 -18.24356088 342.15180316 -16.4921875 329.3203125 C-16 327 -16 327 -14 324 C-11.6875 324 -11.6875 324 -9 325 C-7.59088013 327.54440268 -6.8022251 330.21389391 -6 333 C-5.67 333.99 -5.34 334.98 -5 336 C4.13768065 336.14979804 8.44383482 331.96368211 15 326 C15.73605469 325.39414062 16.47210938 324.78828125 17.23046875 324.1640625 C21.63923968 320.53130348 24.98836879 316.57800828 28.41015625 312.015625 C31.59446118 307.97852096 35.09958165 305.50782103 40 304 C41.32 304 42.64 304 44 304 C37.89516536 288.0355873 28.79354466 273.82498349 13 266 C4.3504714 263.62969649 -5.96671221 263.85063222 -14 268 C-23.63277898 273.77966739 -31.59213728 281.53132603 -36 292 C-34.948125 292.0825 -33.89625 292.165 -32.8125 292.25 C-28.69728295 293.0595509 -26.97027002 294.11709086 -24 297 C-21.66816684 301.66366632 -23.60928553 307.74291867 -25.078125 312.46875 C-25.73390858 314.34918965 -26.38989343 316.22957407 -27.05444336 318.10693359 C-29.42981022 324.95080388 -30.70912561 331.87407492 -32 339 C-32.17063965 339.74443359 -32.3412793 340.48886719 -32.51708984 341.25585938 C-33.99437161 347.84781889 -34.31005658 354.13150454 -34.25 360.875 C-34.24613281 361.93203125 -34.24226562 362.9890625 -34.23828125 364.078125 C-34.16790753 370.41175941 -33.7214176 376.43996096 -32.4609375 382.66015625 C-31.55625126 387.25258894 -30.93735621 391.33279446 -33.55859375 395.4453125 C-59.54765732 422.64026862 -124.24857326 432.90508297 -159.625 434.875 C-161.30335938 435.00261719 -161.30335938 435.00261719 -163.015625 435.1328125 C-171.22940274 435.56408484 -171.22940274 435.56408484 -175.1484375 432.6953125 C-176.44611094 430.80629421 -177.72873818 428.90689272 -179 427 C-180.4805452 427.72636351 -181.9593401 428.45629457 -183.4375 429.1875 C-184.26121094 429.59355469 -185.08492187 429.99960937 -185.93359375 430.41796875 C-191.82401133 433.456974 -197.57212446 436.73916385 -203.296875 440.078125 C-204.19277344 440.59890625 -205.08867187 441.1196875 -206.01171875 441.65625 C-207.85571033 442.72950045 -209.69681221 443.80772949 -211.53515625 444.890625 C-212.42589844 445.40625 -213.31664062 445.921875 -214.234375 446.453125 C-215.03069336 446.91879883 -215.82701172 447.38447266 -216.64746094 447.86425781 C-219.10687891 449.05159824 -221.31043472 449.58374356 -224 450 C-223.39301126 445.73531289 -221.88647055 442.57128549 -219.8125 438.8125 C-218.86503906 437.09160156 -218.86503906 437.09160156 -217.8984375 435.3359375 C-216.28796184 432.50600702 -214.63626338 429.71484331 -212.9375 426.9375 C-210.82079966 423.47279576 -208.96019621 419.96503341 -207.1875 416.3125 C-204.47958111 410.77519884 -201.39082775 405.55245604 -198.18310547 400.29736328 C-195.91305145 396.56543696 -193.82988729 392.82912347 -191.95703125 388.88671875 C-190.75397696 386.51498315 -189.3842727 384.27048203 -188 382 C-185.80789519 378.40143196 -183.83276945 374.77983135 -181.9921875 370.9921875 C-180.13083459 367.25482535 -178.04798399 363.63737033 -176 360 C-172.58886275 353.93188849 -169.28770994 347.80885286 -166.01904297 341.66308594 C-161.8533695 333.83500111 -157.5970217 326.0587569 -153.28125 318.3125 C-151.32698412 314.78528842 -149.40332972 311.24150617 -147.4765625 307.69921875 C-146.12472761 305.22800736 -144.75334027 302.76898986 -143.375 300.3125 C-141.86963561 297.61240196 -140.42919063 294.89775096 -139.0625 292.125 C-135.75494818 285.43176522 -132.07574885 278.93419227 -128.44921875 272.41015625 C-123.70803723 263.86122112 -119.08100687 255.29501979 -114.77783203 246.5168457 C-112.83289144 242.578466 -110.75273192 238.77484809 -108.5 235 C-104.24939701 227.87370432 -100.64947467 220.44539695 -97 213 C-93.89656233 206.7035241 -90.72032502 200.45595421 -87.42480469 194.25805664 C-83.37688522 186.64197675 -79.52143494 178.98505563 -75.90771484 171.15380859 C-73.08148961 165.06975294 -69.96179252 159.16953817 -66.765625 153.2734375 C-64.75908187 149.55334206 -62.85899202 145.79544204 -61 142 C-56.88939138 142.56362955 -54.57738523 144.77957987 -51.4375 147.375 C-40.44957184 156.161164 -27.73297816 163.07540091 -15 169 C-14.67 168.67 -14.34 168.34 -14 168 C-14.87140625 167.26136719 -15.7428125 166.52273437 -16.640625 165.76171875 C-24.01830353 159.48777097 -31.33889575 153.17101096 -38.38037109 146.51855469 C-39.54443809 145.42713221 -40.71779051 144.34558198 -41.89697266 143.27050781 C-43.8887585 141.45058714 -45.85204201 139.6035687 -47.8125 137.75 C-48.44220703 137.18361816 -49.07191406 136.61723633 -49.72070312 136.03369141 C-50.29369141 135.48116699 -50.86667969 134.92864258 -51.45703125 134.359375 C-51.97241455 133.87952148 -52.48779785 133.39966797 -53.01879883 132.90527344 C-54.63042772 129.77585023 -53.75680561 127.35178927 -53 124 C-51.7565918 120.79370117 -51.7565918 120.79370117 -50.19921875 117.54296875 C-49.92157181 116.95510086 -49.64392487 116.36723297 -49.35786438 115.7615509 C-48.47652333 113.89920353 -47.58277171 112.04318491 -46.6875 110.1875 C-43.2527979 103.00120646 -39.84763747 95.84158677 -36.96826172 88.41015625 C-35.91168704 85.78017511 -34.74782751 83.2171406 -33.55859375 80.64453125 C-30.84385884 74.74099422 -28.44222506 68.73235587 -26.0625 62.6875 C-22.90049838 54.70922005 -19.6561426 46.79036955 -16.23046875 38.921875 C-14.67578803 35.23012524 -13.32963744 31.481735 -11.9921875 27.70703125 C-10.55202882 23.77777942 -8.93012939 19.93206303 -7.30078125 16.078125 C-5.50658184 11.83239185 -3.76363722 7.56570981 -2.015625 3.30078125 C-1 1 -1 1 0 0 Z M-12 170 C-10.515 170.99 -10.515 170.99 -9 172 C-9 171.34 -9 170.68 -9 170 C-9.99 170 -10.98 170 -12 170 Z " fill="#1792D0" transform="translate(249,25)"/>
<path d="M0 0 C3 1 3 1 4.08740234 2.83496094 C4.41691895 3.62676758 4.74643555 4.41857422 5.0859375 5.234375 C5.64244995 6.55175659 5.64244995 6.55175659 6.21020508 7.89575195 C6.5945874 8.83765381 6.97896973 9.77955566 7.375 10.75 C7.97380981 12.18122192 7.97380981 12.18122192 8.5847168 13.64135742 C11.12648622 19.75204612 13.56807104 25.8938963 15.83203125 32.11328125 C16.75475056 34.39384836 17.74109602 36.51702837 18.85546875 38.703125 C21.30365582 43.51692479 23.39894374 48.46452214 25.5 53.4375 C27.96271722 59.24127557 30.44890384 65.02993001 33.02148438 70.78588867 C34.36315271 73.82171456 35.65070337 76.87945598 36.94189453 79.93701172 C42.24531296 92.46991702 47.92351023 104.8184875 53.67529297 117.15087891 C54.79472661 119.5585071 55.90364604 121.97029169 57.00390625 124.38671875 C60.22315378 131.43347548 63.710323 138.28658266 67.38354492 145.10375977 C70.61282084 151.14823236 73.57311673 157.30434825 76.5 163.5 C80.08437046 171.0868449 83.81340675 178.55101528 87.79907227 185.93408203 C90.34393405 190.67773628 92.68280281 195.4873765 94.9375 200.375 C97.81068632 206.5937366 100.86215757 212.69298417 104.0625 218.75 C104.48241211 219.54519043 104.90232422 220.34038086 105.33496094 221.15966797 C107.2621863 224.7892005 109.21406773 228.4013735 111.2265625 231.984375 C111.56034912 232.58411133 111.89413574 233.18384766 112.23803711 233.80175781 C113.12228585 235.38335572 114.01961972 236.95761828 114.91796875 238.53125 C116 241 116 241 115 244 C112 242 112 242 111.3125 238.875 C111.209375 237.92625 111.10625 236.9775 111 236 C110.01 236 109.02 236 108 236 C107.814375 235.071875 107.62875 234.14375 107.4375 233.1875 C105.89272441 229.76212803 105.61378762 229.4794021 102.375 228.125 C101.26125 227.75375 100.1475 227.3825 99 227 C99 226.34 99 225.68 99 225 C98.030625 224.87625 97.06125 224.7525 96.0625 224.625 C89.99771212 223.7481632 84.14015953 222.39160096 78.3125 220.5 C73.25397636 218.95068189 68.22988198 218.20341146 62.98828125 217.5390625 C60.17482996 217.17917784 57.39504244 216.72364212 54.60546875 216.2109375 C33.32785871 212.41302227 12.20809267 213.19592351 -9 217 C-10.16402344 217.18949219 -11.32804687 217.37898437 -12.52734375 217.57421875 C-16.07852542 218.1700546 -19.41483082 218.80494361 -22.8359375 219.9453125 C-26.25477723 221.08492574 -29.68981084 221.94637044 -33.1875 222.8125 C-38.90995302 224.28473046 -44.1606446 226.21295581 -49.4765625 228.79296875 C-51.8503015 229.92839499 -54.22669003 230.8845866 -56.6875 231.8125 C-63.34313047 234.42150715 -69.65962439 237.74771023 -76.02001953 240.99560547 C-78.06890424 242.03495339 -80.1277361 243.05272261 -82.1875 244.0703125 C-85.16279815 245.55614958 -88.03723133 247.13698943 -90.875 248.875 C-92.13183594 249.63876953 -92.13183594 249.63876953 -93.4140625 250.41796875 C-94.26742187 250.94003906 -95.12078125 251.46210938 -96 252 C-101.25597273 255.2016471 -106.46712302 258.29503792 -112 261 C-113.25335042 261.72339253 -114.5032622 262.45276951 -115.75 263.1875 C-119 265 -119 265 -121 265 C-121.268125 265.639375 -121.53625 266.27875 -121.8125 266.9375 C-123 269 -123 269 -126 270 C-124.28778137 263.87752126 -121.26657092 258.46637677 -118.3125 252.875 C-117.77012695 251.84109131 -117.22775391 250.80718262 -116.66894531 249.74194336 C-113.47502916 243.68677087 -110.15864603 237.75286452 -106.64453125 231.87890625 C-103.13843012 225.74114727 -100.11004198 219.344885 -97 213 C-93.89656233 206.7035241 -90.72032502 200.45595421 -87.42480469 194.25805664 C-83.37688522 186.64197675 -79.52143494 178.98505563 -75.90771484 171.15380859 C-73.08148961 165.06975294 -69.96179252 159.16953817 -66.765625 153.2734375 C-64.75908187 149.55334206 -62.85899202 145.79544204 -61 142 C-56.88939138 142.56362955 -54.57738523 144.77957987 -51.4375 147.375 C-40.44957184 156.161164 -27.73297816 163.07540091 -15 169 C-14.67 168.67 -14.34 168.34 -14 168 C-14.87140625 167.26136719 -15.7428125 166.52273437 -16.640625 165.76171875 C-24.01830353 159.48777097 -31.33889575 153.17101096 -38.38037109 146.51855469 C-39.54443809 145.42713221 -40.71779051 144.34558198 -41.89697266 143.27050781 C-43.8887585 141.45058714 -45.85204201 139.6035687 -47.8125 137.75 C-48.44220703 137.18361816 -49.07191406 136.61723633 -49.72070312 136.03369141 C-50.29369141 135.48116699 -50.86667969 134.92864258 -51.45703125 134.359375 C-51.97241455 133.87952148 -52.48779785 133.39966797 -53.01879883 132.90527344 C-54.63042772 129.77585023 -53.75680561 127.35178927 -53 124 C-51.7565918 120.79370117 -51.7565918 120.79370117 -50.19921875 117.54296875 C-49.78274834 116.66116692 -49.78274834 116.66116692 -49.35786438 115.7615509 C-48.47652333 113.89920353 -47.58277171 112.04318491 -46.6875 110.1875 C-43.2527979 103.00120646 -39.84763747 95.84158677 -36.96826172 88.41015625 C-35.91168704 85.78017511 -34.74782751 83.2171406 -33.55859375 80.64453125 C-30.84385884 74.74099422 -28.44222506 68.73235587 -26.0625 62.6875 C-22.90049838 54.70922005 -19.6561426 46.79036955 -16.23046875 38.921875 C-14.67578803 35.23012524 -13.32963744 31.481735 -11.9921875 27.70703125 C-10.55202882 23.77777942 -8.93012939 19.93206303 -7.30078125 16.078125 C-5.50658184 11.83239185 -3.76363722 7.56570981 -2.015625 3.30078125 C-1 1 -1 1 0 0 Z M-12 170 C-10.515 170.99 -10.515 170.99 -9 172 C-9 171.34 -9 170.68 -9 170 C-9.99 170 -10.98 170 -12 170 Z " fill="#37A2D7" transform="translate(249,25)"/>
<path d="M0 0 C5.46162534 13.33523751 7.50655587 26.28490954 7.33618164 40.5715332 C7.31239189 42.69715986 7.31567989 44.82153732 7.32226562 46.94726562 C7.30417382 55.12156688 6.66851778 62.97449635 5 71 C6.70736328 71.185625 6.70736328 71.185625 8.44921875 71.375 C36.23101225 74.88197196 66.15407182 86.21455981 90.9284668 98.94799805 C93.3601621 100.18290377 95.81925701 101.35053514 98.28515625 102.515625 C107.53072891 106.889489 116.74365209 111.26813382 125.72680664 116.16235352 C129.30130192 118.10719067 132.90475749 119.95577339 136.56054688 121.73999023 C144.1619017 125.45359271 151.56706478 129.47207039 158.9375 133.625 C159.8965625 134.16342529 160.855625 134.70185059 161.84375 135.2565918 C167.73483662 138.60207762 173.42096364 142.15649141 179 146 C178.42655063 148.86724686 178.1385485 149.8614515 176 152 C171.70078568 152.38215238 168.91143611 151.67632976 165 150 C162.33764413 149.30941239 159.67298664 148.64730297 157 148 C122.10008798 139.50139501 87.98473826 128.51949414 53.97589111 117.00852966 C49.64649745 115.54586791 45.30696705 114.11950286 40.95703125 112.71875 C30.96742422 109.49129193 21.34023313 106.11453316 11.92578125 101.4453125 C7.40373152 99.21145616 3.50166724 97.81343173 -1.5 97.125 C-7.36797847 96.07378461 -10.18024544 94.58932367 -13.671875 89.62109375 C-14.8592666 87.87806378 -16.02240091 86.11816839 -17.15625 84.33984375 C-21.01537278 79.44235531 -25.75768651 78.33326303 -31.6875 77.3125 C-32.39648438 77.1880249 -33.10546875 77.0635498 -33.8359375 76.93530273 C-42.90046918 75.42557939 -50.06966827 74.72377122 -58 80 C-59.38260344 81.07361252 -60.75758712 82.15710562 -62.125 83.25 C-64.83323959 85.35581621 -65.8803007 85.98005012 -69.375 86.5625 C-72 86 -72 86 -74 83 C-74.24412246 76.11795862 -72.19010878 69.44474692 -70.1875 62.9375 C-66.5153868 50.54246484 -63.24356088 38.15180316 -61.4921875 25.3203125 C-61 23 -61 23 -59 20 C-56.6875 20 -56.6875 20 -54 21 C-52.59088013 23.54440268 -51.8022251 26.21389391 -51 29 C-50.67 29.99 -50.34 30.98 -50 32 C-40.86231935 32.14979804 -36.55616518 27.96368211 -30 22 C-29.26394531 21.39414062 -28.52789062 20.78828125 -27.76953125 20.1640625 C-23.36076032 16.53130348 -20.01163121 12.57800828 -16.58984375 8.015625 C-12.06856358 2.28348601 -7.19610581 -0.14392212 0 0 Z " fill="#000000" transform="translate(294,329)"/>
<path d="M0 0 C5.67311399 0.3846179 8.82305585 0.82305585 13 5 C15.33183316 9.66366632 13.39071447 15.74291867 11.921875 20.46875 C11.26609142 22.34918965 10.61010657 24.22957407 9.94555664 26.10693359 C7.57018978 32.95080388 6.29087439 39.87407492 5 47 C4.82936035 47.74443359 4.6587207 48.48886719 4.48291016 49.25585938 C3.00562839 55.84781889 2.68994342 62.13150454 2.75 68.875 C2.75386719 69.93203125 2.75773438 70.9890625 2.76171875 72.078125 C2.83209247 78.41175941 3.2785824 84.43996096 4.5390625 90.66015625 C5.44374874 95.25258894 6.06264379 99.33279446 3.44140625 103.4453125 C-22.54765732 130.64026862 -87.24857326 140.90508297 -122.625 142.875 C-124.30335937 143.00261719 -124.30335937 143.00261719 -126.015625 143.1328125 C-134.17337028 143.5611428 -134.17337028 143.5611428 -138.2109375 140.8203125 C-139.95300128 138.07408969 -140.72413937 136.21837401 -141 133 C-140.18660156 132.59910156 -139.37320313 132.19820312 -138.53515625 131.78515625 C-131.73822083 128.41344813 -125.0019895 124.95536402 -118.3125 121.375 C-112.8537229 118.46150173 -107.38353847 115.67528103 -101.7109375 113.1940918 C-99.09004157 112.03966078 -96.48809826 110.84999771 -93.88671875 109.65234375 C-33.06986858 82 -33.06986858 82 -9 82 C-9.2165625 80.89527344 -9.433125 79.79054688 -9.65625 78.65234375 C-14.21844065 53.86182706 -14.64792035 21.97188053 0 0 Z " fill="#000000" transform="translate(212,317)"/>
<path d="M0 0 C2.10637962 2.10637962 2.71014622 3.44376468 3.76953125 6.18359375 C4.10146484 7.02986328 4.43339844 7.87613281 4.77539062 8.74804688 C5.11763672 9.63556641 5.45988281 10.52308594 5.8125 11.4375 C8.27239714 17.78144525 10.8695893 24.01731293 13.71655273 30.19799805 C15.91602388 34.99984898 18.01008036 39.8479751 20.125 44.6875 C25.2266432 56.3207131 30.4734146 67.88248728 35.80566406 79.41162109 C36.85418977 81.68399835 37.89414168 83.95996993 38.9296875 86.23828125 C42.1716194 93.3350385 45.68405077 100.23790336 49.38330078 107.10327148 C52.61262682 113.14792477 55.57303815 119.30418192 58.5 125.5 C62.08437046 133.0868449 65.81340675 140.55101528 69.79907227 147.93408203 C72.34393405 152.67773628 74.68280281 157.4873765 76.9375 162.375 C79.81068632 168.5937366 82.86215757 174.69298417 86.0625 180.75 C86.48241211 181.54519043 86.90232422 182.34038086 87.33496094 183.15966797 C89.2621863 186.7892005 91.21406773 190.4013735 93.2265625 193.984375 C93.72724243 194.88397949 93.72724243 194.88397949 94.23803711 195.80175781 C95.12228585 197.38335572 96.01961972 198.95761828 96.91796875 200.53125 C98 203 98 203 97 206 C94 204 94 204 93.3125 200.875 C93.209375 199.92625 93.10625 198.9775 93 198 C92.01 198 91.02 198 90 198 C89.814375 197.071875 89.62875 196.14375 89.4375 195.1875 C87.50659035 190.90591774 85.23418913 190.69367565 81 189 C80.0625 186.8125 80.0625 186.8125 80 185 C79.34 185 78.68 185 78 185 C78 184.01 78 183.02 78 182 C77.34 182 76.68 182 76 182 C74.79939985 180.17248549 73.68927699 178.28512159 72.625 176.375 C69.7649224 171.29827295 69.7649224 171.29827295 66.5625 166.4375 C65 164 65 164 65 161 C64.01 160.67 63.02 160.34 62 160 C60.90234375 157.96875 60.90234375 157.96875 59.9375 155.5 C58.77297997 152.03943188 58.77297997 152.03943188 56 150 C54.80359434 147.80965734 53.70055878 145.62431602 52.625 143.375 C49.24710781 136.4534149 45.71889192 129.6242122 42.125 122.8125 C33.7058181 106.78549499 26.07920572 90.50374224 19.18359375 73.76953125 C18.07045908 71.06604566 18.07045908 71.06604566 16.85546875 68.80859375 C15.74744025 66.46604947 15.85793301 64.55720576 16 62 C15.34 62 14.68 62 14 62 C13.75765625 61.23816406 13.5153125 60.47632813 13.265625 59.69140625 C11.42565503 54.02288338 9.44369317 48.56705857 6.94140625 43.16015625 C5.65809409 40.21546071 4.67484177 37.20243855 3.7109375 34.140625 C3.00937361 31.93371609 3.00937361 31.93371609 1.984375 29.59765625 C0.92273807 26.79611435 0.37285066 24.13904319 -0.125 21.1875 C-0.37636719 19.72376953 -0.37636719 19.72376953 -0.6328125 18.23046875 C-0.81457031 17.12638672 -0.81457031 17.12638672 -1 16 C-0.01 16.33 0.98 16.66 2 17 C1.29416478 8.46348556 1.29416478 8.46348556 0 0 Z " fill="#53AFDC" transform="translate(267,63)"/>
<path d="M0 0 C20.17396234 5.15883029 38.88516431 12.75839678 57 23 C56.60167969 22.27554687 56.20335937 21.55109375 55.79296875 20.8046875 C48 6.58394161 48 6.58394161 48 4 C51.91628063 5.48548576 53.0795559 7.33945808 55 11 C56.03263648 13.71947875 56.91467727 16.48363687 57.8125 19.25 C60.08831297 25.91951385 62.59575925 31.43879534 67 37 C68.68927249 39.16531546 70.37698771 41.33176343 72.0625 43.5 C72.49941162 44.05872803 72.93632324 44.61745605 73.38647461 45.19311523 C76.2942233 48.95358263 78.73327389 52.74114322 80.92578125 56.94921875 C83.40805178 61.68809886 86.31790931 66.12825744 89.5625 70.375 C94.98242403 77.93211804 96.6514548 85.83326127 97 95 C95.00413359 92.42655282 93.27656264 89.86249244 91.71875 87.00390625 C91.28820312 86.2164502 90.85765625 85.42899414 90.4140625 84.61767578 C89.71410156 83.32192627 89.71410156 83.32192627 89 82 C88.49210937 81.0601123 87.98421875 80.12022461 87.4609375 79.15185547 C85.24151095 75.0353285 83.02492207 70.91731393 80.81640625 66.79492188 C79.23022943 63.85209734 77.62503452 60.92153001 76 58 C75.56743896 57.22197021 75.13487793 56.44394043 74.68920898 55.64233398 C72.05749659 51.15504132 69.34467692 48.27088338 65.0625 45.1875 C63.90933528 44.34096095 62.75702122 43.49326215 61.60546875 42.64453125 C61.0129834 42.21350098 60.42049805 41.7824707 59.81005859 41.33837891 C56.77247744 39.09235519 53.83096475 36.72667756 50.875 34.375 C34.93292023 21.82632745 18.16641763 10.11635921 0 1 C0 0.67 0 0.34 0 0 Z " fill="#030303" transform="translate(365,353)"/>
<path d="M0 0 C2.83357939 3.4526075 4.74179398 7.25891928 6.6875 11.25 C7.40100923 12.69402644 8.11455182 14.13803641 8.828125 15.58203125 C9.18970703 16.31760254 9.55128906 17.05317383 9.92382812 17.81103516 C14.70637065 27.53886553 19.59656276 37.19556259 24.70141602 46.75854492 C27.74202465 52.46885951 30.64323041 58.23885619 33.4921875 64.046875 C34.94310457 67.01533404 34.94310457 67.01533404 36.7578125 69.703125 C37.16773438 70.46109375 37.57765625 71.2190625 38 72 C37.505 73.485 37.505 73.485 37 75 C34 73 34 73 33.3125 69.875 C33.209375 68.92625 33.10625 67.9775 33 67 C32.01 67 31.02 67 30 67 C29.814375 66.071875 29.62875 65.14375 29.4375 64.1875 C27.50659035 59.90591774 25.23418913 59.69367565 21 58 C20.0625 55.8125 20.0625 55.8125 20 54 C19.34 54 18.68 54 18 54 C18 53.01 18 52.02 18 51 C17.34 51 16.68 51 16 51 C14.79939985 49.17248549 13.68927699 47.28512159 12.625 45.375 C9.7649224 40.29827295 9.7649224 40.29827295 6.5625 35.4375 C5 33 5 33 5 30 C4.01 29.67 3.02 29.34 2 29 C0.90234375 26.96875 0.90234375 26.96875 -0.0625 24.5 C-1.22702003 21.03943188 -1.22702003 21.03943188 -4 19 C-5.79147635 15.18028832 -7 11.35073519 -7 7.125 C-5.63564559 4.22574687 -3.78579931 3.46254464 -1 2 C-0.67 1.34 -0.34 0.68 0 0 Z " fill="#68B9E0" transform="translate(327,194)"/>
<path d="M0 0 C4.93635556 3.64800177 7.40920133 6.89386684 9.9375 12.4375 C10.62091209 13.86727435 11.30450935 15.29696019 11.98828125 16.7265625 C12.49222412 17.80019043 12.49222412 17.80019043 13.00634766 18.89550781 C14.49968935 22.05831012 16.06079383 25.18408766 17.625 28.3125 C18.18445313 29.43914062 18.74390625 30.56578125 19.3203125 31.7265625 C21.4243701 35.82702823 23.69630814 39.8199937 26.03125 43.79296875 C27 46 27 46 26 49 C23 47 23 47 22.3125 43.875 C22.209375 42.92625 22.10625 41.9775 22 41 C21.01 41 20.02 41 19 41 C18.814375 40.071875 18.62875 39.14375 18.4375 38.1875 C16.50659035 33.90591774 14.23418913 33.69367565 10 32 C9.0625 29.8125 9.0625 29.8125 9 28 C8.34 28 7.68 28 7 28 C7 27.01 7 26.02 7 25 C6.34 25 5.68 25 5 25 C1.05390926 19.8289587 -2.75115449 14.46264954 -1.9375 7.75 C-1.628125 6.5125 -1.31875 5.275 -1 4 C-0.34 4 0.32 4 1 4 C0.67 2.68 0.34 1.36 0 0 Z " fill="#62B5E0" transform="translate(338,220)"/>
<path d="M0 0 C2.72994147 2.20995262 3.76577779 4.63894945 5.0546875 7.84765625 C6.63892023 11.45473161 8.61161094 14.84929036 10.51953125 18.29296875 C12.11392766 21.20831627 13.59363362 24.16494092 15.0546875 27.1484375 C16.05215135 29.10214769 17.13758915 30.98467946 18.25 32.875 C20 36 20 36 20 38 C15.28760409 36.59492783 11.14869782 34.57385704 6.875 32.1875 C0.42176201 28.65570919 -6.13394606 25.65947713 -13 23 C-9.99112219 21.41841038 -7.36327963 20.56054661 -4 20 C-3.62875 20.763125 -3.2575 21.52625 -2.875 22.3125 C-0.58218549 25.59886747 1.27958338 26.58624168 5 28 C7.75146274 28.25284367 7.75146274 28.25284367 10 28 C10.22588692 22.88231151 10.22588692 22.88231151 9 18 C8.38125 17.731875 7.7625 17.46375 7.125 17.1875 C3.06187838 14.91693204 1.60003993 10.20251451 0 6 C-0.3125 2.375 -0.3125 2.375 0 0 Z " fill="#358EBB" transform="translate(402,338)"/>
<path d="M0 0 C0.99 0 1.98 0 3 0 C8.79610729 16.34502256 10.17242877 32.73922617 10.25 50 C10.25918457 51.1329248 10.26836914 52.26584961 10.27783203 53.43310547 C10.25280921 60.2323076 9.55644483 66.3789331 8 73 C10.97 73 13.94 73 17 73 C17.33 73.99 17.66 74.98 18 76 C13.90234467 75.52194021 9.99479534 75.02796474 6 74 C6.06928711 73.32300049 6.13857422 72.64600098 6.20996094 71.94848633 C6.96381509 63.90223344 7.21799656 55.89468777 7.24023438 47.81958008 C7.24994144 45.70028416 7.28109546 43.58196104 7.3125 41.46289062 C7.41077941 28.75399002 5.57250066 17.04438366 0.76953125 5.171875 C0 3 0 3 0 0 Z " fill="#4B8098" transform="translate(293,326)"/>
<path d="M0 0 C3 1 3 1 4.08740234 2.83496094 C4.58167725 4.0226709 4.58167725 4.0226709 5.0859375 5.234375 C5.45726807 6.11303223 5.82859863 6.99168945 6.21118164 7.89697266 C6.5952417 8.83847168 6.97930176 9.7799707 7.375 10.75 C7.77130615 11.70052246 8.1676123 12.65104492 8.57592773 13.63037109 C9.73097848 16.41487264 10.86879318 19.20573878 12 22 C12.29825684 22.73186523 12.59651367 23.46373047 12.90380859 24.21777344 C17 34.32120933 17 34.32120933 17 38 C16.01 37.34 15.02 36.68 14 36 C13.8125 32.875 13.8125 32.875 14 30 C13.34 30 12.68 30 12 30 C12 29.34 12 28.68 12 28 C11.34 28 10.68 28 10 28 C9.67 25.03 9.34 22.06 9 19 C8.34 19 7.68 19 7 19 C6.80664062 18.33613281 6.61328125 17.67226563 6.4140625 16.98828125 C4.47248648 10.40210691 4.47248648 10.40210691 2 4 C-0.7910922 6.37788582 -1.66474833 8.42888812 -2.625 11.9375 C-2.98464844 13.21947266 -2.98464844 13.21947266 -3.3515625 14.52734375 C-3.74715892 16.035853 -4.11622293 17.5520589 -4.4375 19.078125 C-5.09036008 21.30873026 -6.08034674 22.88621288 -7.375 24.8125 C-9.71533865 28.42815362 -11.41640791 31.99934631 -13 36 C-14.20003604 32.47731356 -14.04627862 32.0976993 -12.3125 28.4375 C-11.93609375 27.74011719 -11.5596875 27.04273437 -11.171875 26.32421875 C-9.92209248 23.84548341 -8.98420787 21.36780146 -8.0625 18.75 C-2.23295455 2.23295455 -2.23295455 2.23295455 0 0 Z " fill="#A9D6EA" transform="translate(249,25)"/>
<path d="M0 0 C0.33 0 0.66 0 1 0 C1.71187122 6.76277663 -0.87064808 13.27176786 -5 18.5625 C-5.66 19.366875 -6.32 20.17125 -7 21 C-8.4636771 23.94740457 -9.75295774 26.95535958 -11 30 C-11.99 30 -12.98 30 -14 30 C-15.14051606 34.98283716 -16.22225866 39.94468132 -17 45 C-18.98 45.66 -20.96 46.32 -23 47 C-21.76549204 42.91662753 -20.21208648 39.62782182 -18 36 C-17.27862391 34.31541113 -16.5581933 32.63040196 -15.84545898 30.94213867 C-14.43165151 27.69442327 -12.84244537 24.53803365 -11.25 21.375 C-10.90582031 20.68857422 -10.56164062 20.00214844 -10.20703125 19.29492188 C-6.92987965 12.79463766 -3.49801378 6.38387514 0 0 Z " fill="#B8DEEE" transform="translate(172,199)"/>
<path d="M0 0 C1 2 1 2 0.29296875 4.57421875 C-0.07183594 5.60160156 -0.43664062 6.62898437 -0.8125 7.6875 C-2.34750182 12.10129415 -3.77074153 16.49271893 -5 21 C-5.66 21 -6.32 21 -7 21 C-7.268125 21.61875 -7.53625 22.2375 -7.8125 22.875 C-9 25 -9 25 -12 27 C-12.16669318 30.45828022 -12.16669318 30.45828022 -12 34 C-12.33 34.99 -12.66 35.98 -13 37 C-13.99 37 -14.98 37 -16 37 C-16 38.32 -16 39.64 -16 41 C-17.175625 41.0928125 -17.175625 41.0928125 -18.375 41.1875 C-19.24125 41.455625 -20.1075 41.72375 -21 42 C-22.37466625 44.47636012 -22.37466625 44.47636012 -23 47 C-23.33 46.34 -23.66 45.68 -24 45 C-23.03125 42.66845703 -23.03125 42.66845703 -21.5 39.7578125 C-20.94183594 38.69046875 -20.38367188 37.623125 -19.80859375 36.5234375 C-19.21175781 35.40195312 -18.61492187 34.28046875 -18 33.125 C-17.43410156 32.0421875 -16.86820313 30.959375 -16.28515625 29.84375 C-12.86108332 23.337235 -9.27684871 16.94944429 -5.52319336 10.62744141 C-3.51176305 7.15781278 -1.73729106 3.6135654 0 0 Z " fill="#AAD7EB" transform="translate(148,246)"/>
<path d="M0 0 C4.40785758 0.87570555 7.30710183 3.31196487 10.75 6.0625 C11.35199219 6.53494141 11.95398438 7.00738281 12.57421875 7.49414062 C14.05409943 8.65690401 15.52768096 9.8276766 17 11 C16.01 11.495 16.01 11.495 15 12 C12.35099529 10.81868709 9.85709682 9.42190175 7.3125 8.03125 C6.549375 7.6909375 5.78625 7.350625 5 7 C2.84188612 7.94729537 2.84188612 7.94729537 1 10 C1 9.34 1 8.68 1 8 C0.34 8 -0.32 8 -1 8 C-1.33 9.65 -1.66 11.3 -2 13 C-2.99 12.67 -3.98 12.34 -5 12 C-5.12375 13.299375 -5.2475 14.59875 -5.375 15.9375 C-5.5859375 18.15234375 -5.5859375 18.15234375 -6 20 C-6.66 20.33 -7.32 20.66 -8 21 C-8.268125 22.093125 -8.53625 23.18625 -8.8125 24.3125 C-10.1447647 28.44953248 -11.43775703 29.6564191 -15 32 C-12.73524169 23.93179853 -8.93505343 17.00632204 -4.92626953 9.70605469 C-3.19367112 6.51485866 -1.59698594 3.26051297 0 0 Z " fill="#90C9E3" transform="translate(188,167)"/>
<path d="M0 0 C3.91346619 3.43317715 6.07119049 7.35724853 8.5 11.875 C11.14633198 16.74316702 13.90448928 21.39641995 17 26 C18.97932674 29.73708706 20 32.68394514 20 37 C15.68607774 36.5206753 13.83430453 35.2542015 11 32 C12.65 32.33 14.3 32.66 16 33 C15.34 31.88625 14.68 30.7725 14 29.625 C12 26.25 12 26.25 12 24 C11.34 24 10.68 24 10 24 C10 23.34 10 22.68 10 22 C9.34 22 8.68 22 8 22 C7.71125 21.0925 7.4225 20.185 7.125 19.25 C5.65513763 14.2397949 5.65513763 14.2397949 2 11 C1.3671875 8.49609375 1.3671875 8.49609375 0.875 5.4375 C0.70742188 4.42558594 0.53984375 3.41367187 0.3671875 2.37109375 C0.24601562 1.58863281 0.12484375 0.80617188 0 0 Z " fill="#6EB1CB" transform="translate(455,438)"/>
<path d="M0 0 C0 3.74161103 -0.51338171 7.28953557 -1 11 C-1.66 11 -2.32 11 -3 11 C-3 11.66 -3 12.32 -3 13 C-2.34 13 -1.68 13 -1 13 C-1.33 13.99 -1.66 14.98 -2 16 C-3.65 16 -5.3 16 -7 16 C-7 16.99 -7 17.98 -7 19 C-6.113125 18.67 -5.22625 18.34 -4.3125 18 C-1.29076653 17.08777857 0.88373706 16.81669042 4 17 C1.10033164 19.44659518 -1.89286096 21.67047981 -5.0625 23.75 C-5.71347656 24.17796875 -6.36445313 24.6059375 -7.03515625 25.046875 C-9 26 -9 26 -13 26 C-11.6737861 16.59435141 -5.08167845 7.85350306 0 0 Z " fill="#8AC7E3" transform="translate(38,449)"/>
<path d="M0 0 C4.80172134 1.10808954 7.91161335 2.04686508 11 6 C11 6.66 11 7.32 11 8 C13.475 8.495 13.475 8.495 16 9 C16 9.66 16 10.32 16 11 C16.99 11 17.98 11 19 11 C19.99 12.98 20.98 14.96 22 17 C14.79226072 15.41429736 8.45968707 13.60251779 2 10 C2 9.34 2 8.68 2 8 C0.6078125 7.8453125 0.6078125 7.8453125 -0.8125 7.6875 C-4.03254358 6.9929808 -5.02579865 6.52259061 -7 4 C-6.67 3.34 -6.34 2.68 -6 2 C-2.04 3.98 1.92 5.96 6 8 C6.33 7.67 6.66 7.34 7 7 C6.24203125 6.36771484 6.24203125 6.36771484 5.46875 5.72265625 C4.8190625 5.17480469 4.169375 4.62695312 3.5 4.0625 C2.8503125 3.51722656 2.200625 2.97195312 1.53125 2.41015625 C1.0259375 1.94480469 0.520625 1.47945312 0 1 C0 0.67 0 0.34 0 0 Z M9 9 C10.485 9.99 10.485 9.99 12 11 C12 10.34 12 9.68 12 9 C11.01 9 10.02 9 9 9 Z " fill="#A9D8EB" transform="translate(228,186)"/>
<path d="M0 0 C1.05638672 0.00515625 2.11277344 0.0103125 3.20117188 0.015625 C4.84762695 0.0465625 4.84762695 0.0465625 6.52734375 0.078125 C7.62884766 0.08328125 8.73035156 0.0884375 9.86523438 0.09375 C18.00025321 0.17326149 18.00025321 0.17326149 21.46484375 1.328125 C22.15234375 3.390625 22.15234375 3.390625 22.46484375 5.328125 C23.15191406 5.3796875 23.83898437 5.43125 24.546875 5.484375 C27.38482871 5.84165673 29.80413097 6.26556762 32.46484375 7.328125 C33.7691055 9.32858052 34.24601163 11.07802031 34.82421875 13.38671875 C35.36083785 15.63108258 35.36083785 15.63108258 38.02734375 17.265625 C41.6135005 20.30006533 41.81943531 23.81989888 42.46484375 28.328125 C39.83282328 25.94677315 38.27618774 23.36212618 36.46484375 20.328125 C30.67993507 12.8318475 23.43469244 5.26357255 14.03125 2.65234375 C6.21656326 1.66510022 -1.77425063 2.11072804 -9.53515625 3.328125 C-6.32202532 0.45409202 -4.27480485 -0.04138174 0 0 Z " fill="#AEDAED" transform="translate(245.53515625,287.671875)"/>
<path d="M0 0 C6.9821756 -0.24498862 12.43368644 0.97618818 18.9375 3.5625 C22.95273598 5.11830572 26.71986402 5.617845 31 6 C31 6.66 31 7.32 31 8 C31.75925781 8.04898437 32.51851563 8.09796875 33.30078125 8.1484375 C34.29464844 8.22320312 35.28851563 8.29796875 36.3125 8.375 C37.29863281 8.44460938 38.28476562 8.51421875 39.30078125 8.5859375 C42 9 42 9 45 11 C45 11.66 45 12.32 45 13 C45.71027344 13.19335938 46.42054688 13.38671875 47.15234375 13.5859375 C48.07144531 13.84632813 48.99054688 14.10671875 49.9375 14.375 C50.85402344 14.63023437 51.77054687 14.88546875 52.71484375 15.1484375 C55 16 55 16 56 18 C49.91809551 16.82737126 44.39695867 15.1268207 38.6875 12.75 C32.02401893 10.06863952 25.32076541 7.74066424 18.4375 5.6875 C17.62949951 5.44547852 16.82149902 5.20345703 15.98901367 4.95410156 C10.69990347 3.40755898 5.38976099 2.14687222 0 1 C0 0.67 0 0.34 0 0 Z " fill="#3A748D" transform="translate(311,402)"/>
<path d="M0 0 C1.32757546 3.98272639 0.3296542 6.0810192 -1 10 C-1.99 11.485 -1.99 11.485 -3 13 C-3.70164642 14.98799818 -4.37372872 16.98698517 -5 19 C-5.66 19 -6.32 19 -7 19 C-8.38455084 26.77050316 -8.38455084 26.77050316 -6 34 C-5.01 34.33 -4.02 34.66 -3 35 C-3 35.66 -3 36.32 -3 37 C-2.01 37.33 -1.02 37.66 0 38 C0.33 39.65 0.66 41.3 1 43 C-0.6951438 41.58570843 -2.37462721 40.15746772 -4.0390625 38.70703125 C-5.28671389 37.62092834 -6.55094884 36.55337977 -7.8359375 35.51171875 C-9.5 34.0625 -9.5 34.0625 -12 31 C-12.00947445 23.93205742 -8.41177453 17.8192448 -5.4375 11.5625 C-4.65729492 9.8928418 -4.65729492 9.8928418 -3.86132812 8.18945312 C-2.58242454 5.45565005 -1.29514535 2.72613621 0 0 Z " fill="#A4D3E6" transform="translate(207,125)"/>
<path d="M0 0 C3.28605591 3.04711221 4.96227413 6.63278606 6.875 10.625 C9.49438575 16.00663607 12.18693211 21.27102502 15.28515625 26.3984375 C15.52105469 26.92695313 15.75695312 27.45546875 16 28 C15.67 28.66 15.34 29.32 15 30 C14.34 28.35 13.68 26.7 13 25 C12.01 25.33 11.02 25.66 10 26 C8.87119943 22.68885166 7.78697325 19.41021743 7 16 C6.34 16 5.68 16 5 16 C2.15803755 12.82707484 -0.82904901 9.19453364 -1.16796875 4.84375 C-0.875 2.9375 -0.875 2.9375 0 0 Z " fill="#63B1D7" transform="translate(365,269)"/>
<path d="M0 0 C5.4 0.6 5.4 0.6 7.875 2.25 C9.37422891 4.58213386 9.22023906 6.28371825 9 9 C9.99 9 10.98 9 12 9 C12.12375 10.423125 12.12375 10.423125 12.25 11.875 C12.65074923 15.10461791 12.65074923 15.10461791 15.0625 16.375 C16.0215625 16.684375 16.0215625 16.684375 17 17 C16.67 18.65 16.34 20.3 16 22 C14.62437146 20.71034824 13.29233607 19.37310707 12 18 C12 17.34 12 16.68 12 16 C11.34 16 10.68 16 10 16 C7.68336156 12.06171464 5.56641751 8.30764815 4 4 C3.34 4 2.68 4 2 4 C1.34 2.68 0.68 1.36 0 0 Z " fill="#3BA4D7" transform="translate(348,252)"/>
<path d="M0 0 C-0.82089111 0.30703857 -1.64178223 0.61407715 -2.48754883 0.93041992 C-5.58815623 2.09224769 -8.68741932 3.25753686 -11.78588867 4.42504883 C-13.11676119 4.92574933 -14.44812718 5.42514049 -15.7800293 5.9230957 C-24.7307042 9.27074925 -33.48384287 12.89064916 -42.11254883 17.00805664 C-46.68087059 19.10637647 -46.68087059 19.10637647 -50 18 C-49.34 18 -48.68 18 -48 18 C-48 17.34 -48 16.68 -48 16 C-45.69 15.34 -43.38 14.68 -41 14 C-41 13.34 -41 12.68 -41 12 C-35.555 11.01 -35.555 11.01 -30 10 C-30 9.34 -30 8.68 -30 8 C-28.41701974 7.5196682 -26.83360022 7.04078388 -25.25 6.5625 C-24.36828125 6.29566406 -23.4865625 6.02882813 -22.578125 5.75390625 C-20.39434165 5.11531506 -18.21164502 4.53224167 -16 4 C-16 3.34 -16 2.68 -16 2 C-15.30132812 1.86722656 -14.60265625 1.73445313 -13.8828125 1.59765625 C-12.51769531 1.33275391 -12.51769531 1.33275391 -11.125 1.0625 C-9.76761719 0.80146484 -9.76761719 0.80146484 -8.3828125 0.53515625 C-2.56875 -0.770625 -2.56875 -0.770625 0 0 Z " fill="#397490" transform="translate(160,411)"/>
<path d="M0 0 C3.19231083 3.19231083 4.83538107 6.37443684 6.75 10.375 C9.90353136 16.86330016 13.25801005 23.16550112 16.84765625 29.42578125 C18 32 18 32 17 35 C14 33 14 33 13.3125 29.875 C13.209375 28.92625 13.10625 27.9775 13 27 C12.01 27 11.02 27 10 27 C9.80664062 26.38511719 9.61328125 25.77023437 9.4140625 25.13671875 C9.15367187 24.32847656 8.89328125 23.52023437 8.625 22.6875 C8.36976563 21.88699219 8.11453125 21.08648437 7.8515625 20.26171875 C7.01168189 17.77275472 7.01168189 17.77275472 5 15 C4.875 12.3125 4.875 12.3125 5 10 C4.01 10 3.02 10 2 10 C1.34 6.7 0.68 3.4 0 0 Z " fill="#A4D1E4" transform="translate(347,234)"/>
<path d="M0 0 C1 2 1 2 0.1875 5.5 C-1 9 -1 9 -3 11 C-3.309375 12.010625 -3.61875 13.02125 -3.9375 14.0625 C-4.288125 15.031875 -4.63875 16.00125 -5 17 C-5.99 17.33 -6.98 17.66 -8 18 C-8.12375 19.093125 -8.2475 20.18625 -8.375 21.3125 C-9 25 -9 25 -11 28 C-11.99 28.33 -12.98 28.66 -14 29 C-15.71567661 32.50294871 -15.71567661 32.50294871 -17 36 C-17.66 36 -18.32 36 -19 36 C-17.44870133 30.49994107 -14.8281413 25.91460865 -12 21 C-11.16403098 19.5014673 -10.33066219 18.00148086 -9.5 16.5 C-9.09136719 15.76523437 -8.68273437 15.03046875 -8.26171875 14.2734375 C-7.38669448 12.69676838 -6.51449244 11.11853094 -5.64453125 9.5390625 C-5.20496094 8.74242187 -4.76539062 7.94578125 -4.3125 7.125 C-3.91675781 6.40570313 -3.52101563 5.68640625 -3.11328125 4.9453125 C-2.14575837 3.25469357 -1.08049745 1.62074617 0 0 Z " fill="#93CBE3" transform="translate(82,369)"/>
<path d="M0 0 C0.33 0.66 0.66 1.32 1 2 C0.0625 4.625 0.0625 4.625 -1 7 C-0.01 7.33 0.98 7.66 2 8 C0.68 8 -0.64 8 -2 8 C-2.309375 9.11375 -2.61875 10.2275 -2.9375 11.375 C-4 15 -4 15 -5 17 C-5.66 17 -6.32 17 -7 17 C-7.12117188 17.62648438 -7.24234375 18.25296875 -7.3671875 18.8984375 C-7.61855469 20.12433594 -7.61855469 20.12433594 -7.875 21.375 C-8.03742187 22.18710937 -8.19984375 22.99921875 -8.3671875 23.8359375 C-9 26 -9 26 -11 28 C-13.125 27.625 -13.125 27.625 -15 27 C-14.31164063 25.83984375 -14.31164063 25.83984375 -13.609375 24.65625 C-10.54226502 19.44989524 -7.54416854 14.26328309 -4.91015625 8.82421875 C-3.40440712 5.80625806 -1.69903934 2.91263887 0 0 Z " fill="#85C5E1" transform="translate(62,405)"/>
<path d="M0 0 C2.31 0.33 4.62 0.66 7 1 C7 1.99 7 2.98 7 4 C8.32 4 9.64 4 11 4 C11.1546875 4.928125 11.1546875 4.928125 11.3125 5.875 C11.87525373 8.36526484 11.87525373 8.36526484 15 10 C15 10.99 15 11.98 15 13 C16.65 13 18.3 13 20 13 C20 14.65 20 16.3 20 18 C15.01865379 15.38842043 11.23486242 11.70934334 7.1875 7.875 C6.49462891 7.22917969 5.80175781 6.58335937 5.08789062 5.91796875 C1.34105887 2.39631605 1.34105887 2.39631605 0 1 C0 0.67 0 0.34 0 0 Z " fill="#89C5DF" transform="translate(208,168)"/>
<path d="M0 0 C0.33 0 0.66 0 1 0 C1.05871491 4.29160791 1.09383483 8.58311058 1.125 12.875 C1.14175781 14.07898438 1.15851563 15.28296875 1.17578125 16.5234375 C1.21456769 23.66014223 0.67298673 30.05776374 -1 37 C1.97 37 4.94 37 8 37 C8.33 37.99 8.66 38.98 9 40 C0.96428571 39.0625 0.96428571 39.0625 -3 38 C-2.85738409 36.12475253 -2.71075143 34.24981036 -2.5625 32.375 C-2.48128906 31.33085937 -2.40007812 30.28671875 -2.31640625 29.2109375 C-2 26 -2 26 -1.5 23.25 C-0.80319546 18.72077052 -0.63653569 14.19955806 -0.4375 9.625 C-0.39431641 8.69816406 -0.35113281 7.77132813 -0.30664062 6.81640625 C-0.20123814 4.54439706 -0.09911394 2.27229075 0 0 Z " fill="#4090B8" transform="translate(302,362)"/>
<path d="M0 0 C0 4.32367548 -1.55995621 7.95789688 -3 12 C-3.495 13.3921875 -3.495 13.3921875 -4 14.8125 C-5.07645935 17.16725484 -6.43911766 18.93963531 -8 21 C-8.7115625 22.546875 -8.7115625 22.546875 -9.4375 24.125 C-11.06234287 27.11471089 -11.85564013 27.91573797 -15 29 C-13.74944666 23.78936108 -12.0138464 20.50433044 -9 16 C-7.71613404 13.61916832 -6.54301689 11.1893981 -5.375 8.75 C-2.26785714 2.26785714 -2.26785714 2.26785714 0 0 Z " fill="#9ED4E9" transform="translate(98,340)"/>
<path d="M0 0 C8.69180598 0.8283798 15.73929296 1.96744644 23 7 C19.8568669 8.57156655 17.634536 7.11705576 14.375 6.0625 C13.18648438 5.68222656 11.99796875 5.30195313 10.7734375 4.91015625 C9.85820312 4.60980469 8.94296875 4.30945313 8 4 C10.475 5.98 10.475 5.98 13 8 C11.02 8 9.04 8 7 8 C7 7.34 7 6.68 7 6 C4.03 5.505 4.03 5.505 1 5 C0.67 3.35 0.34 1.7 0 0 Z " fill="#397FA1" transform="translate(361,351)"/>
<path d="M0 0 C2.72573482 2.20654723 3.76605723 4.6265877 5.04296875 7.8359375 C6.65643892 11.48435575 8.70594641 14.89738954 10.6953125 18.3515625 C11.97286379 20.94491512 12.57867561 23.1534913 13 26 C12.34 25.67 11.68 25.34 11 25 C10.71125 23.865625 10.4225 22.73125 10.125 21.5625 C9.75375 20.386875 9.3825 19.21125 9 18 C8.37351562 17.69449219 7.74703125 17.38898438 7.1015625 17.07421875 C3.00986628 14.98273834 1.57146986 10.12747505 0 6 C-0.3125 2.375 -0.3125 2.375 0 0 Z " fill="#7DB8D1" transform="translate(402,338)"/>
<path d="M0 0 C3.19228551 4.12733495 5.69687638 8.52241154 8.25 13.0625 C8.72179687 13.87783203 9.19359375 14.69316406 9.6796875 15.53320312 C10.34097656 16.70979492 10.34097656 16.70979492 11.015625 17.91015625 C11.42071289 18.62308838 11.82580078 19.33602051 12.24316406 20.07055664 C13 22 13 22 12 25 C10.68 24.67 9.36 24.34 8 24 C7.731875 23.05125 7.46375 22.1025 7.1875 21.125 C7.00445312 20.4959375 6.82140625 19.866875 6.6328125 19.21875 C6.17087343 17.59911178 5.73118831 15.97307892 5.3046875 14.34375 C5.05976563 13.4465625 4.81484375 12.549375 4.5625 11.625 C4.33691406 10.77164062 4.11132812 9.91828125 3.87890625 9.0390625 C3.44384766 8.02972656 3.44384766 8.02972656 3 7 C2.01 6.67 1.02 6.34 0 6 C0 4.02 0 2.04 0 0 Z " fill="#6EA1B8" transform="translate(442,413)"/>
<path d="M0 0 C0.33 0 0.66 0 1 0 C1.68480456 6.50564333 -0.67845611 12.67223454 -4.37890625 17.9765625 C-5.53271454 19.36376221 -6.75908364 20.69014384 -8 22 C-8 13.56659982 -4.14996459 7.0993105 0 0 Z " fill="#59A6CE" transform="translate(172,199)"/>
<path d="M0 0 C0.99 0 1.98 0 3 0 C2.35178174 3.65118859 1.36283414 7.00719668 0.125 10.5 C-2.05787166 16.90521464 -3.59199125 23.38662557 -5 30 C-5.33 30 -5.66 30 -6 30 C-5.60797965 25.05848038 -5.13767985 20.25524323 -3.9375 15.4375 C-2.83918843 10.88154089 -2.85157891 6.67526424 -3 2 C-2.34 2.33 -1.68 2.66 -1 3 C-0.67 2.01 -0.34 1.02 0 0 Z " fill="#4081A1" transform="translate(207,320)"/>
<path d="M0 0 C3.24262993 2.72220784 4.89759525 6.27994438 6.75 10 C7.07871094 10.6290625 7.40742188 11.258125 7.74609375 11.90625 C8.57925132 13.56553427 9.29763177 15.28126363 10 17 C9.67 17.99 9.34 18.98 9 20 C7.68 19.01 6.36 18.02 5 17 C4.34 17.33 3.68 17.66 3 18 C2.22887459 13.27685687 1.90235126 8.78478822 2 4 C1.34 4 0.68 4 0 4 C0 2.68 0 1.36 0 0 Z " fill="#92CAE3" transform="translate(305,150)"/>
<path d="M0 0 C0.66 0 1.32 0 2 0 C4.35119399 3.52679099 4.21443452 5.02879485 4.125 9.1875 C4.10695312 10.27417969 4.08890625 11.36085938 4.0703125 12.48046875 C4.03550781 13.72763672 4.03550781 13.72763672 4 15 C3.01 14.34 2.02 13.68 1 13 C0.8125 9.875 0.8125 9.875 1 7 C0.319375 7.928125 0.319375 7.928125 -0.375 8.875 C-2 11 -2 11 -4 13 C-3.56826373 7.90551202 -3.24599784 4.15487723 0 0 Z " fill="#2193CB" transform="translate(249,29)"/>
<path d="M0 0 C0.99 0 1.98 0 3 0 C3.93423645 3.01031744 4.04449911 3.86650268 3 7 C2.01 7 1.02 7 0 7 C0 8.32 0 9.64 0 11 C-1.175625 11.0928125 -1.175625 11.0928125 -2.375 11.1875 C-3.24125 11.455625 -4.1075 11.72375 -5 12 C-6.37466625 14.47636012 -6.37466625 14.47636012 -7 17 C-7.33 16.34 -7.66 15.68 -8 15 C-6.75874818 12.38838269 -5.4689476 9.89498214 -4.0625 7.375 C-3.48338867 6.31539063 -3.48338867 6.31539063 -2.89257812 5.234375 C-1.93551304 3.48566349 -0.96865969 1.74231568 0 0 Z " fill="#9DCFE7" transform="translate(132,276)"/>
<path d="M0 0 C1.31625194 2.63250388 0.74813658 3.80179056 0.0625 6.625 C-0.13214844 7.44226563 -0.32679688 8.25953125 -0.52734375 9.1015625 C-0.68332031 9.72804688 -0.83929688 10.35453125 -1 11 C-1.66 11 -2.32 11 -3 11 C-3.144375 12.258125 -3.28875 13.51625 -3.4375 14.8125 C-3.73748686 17.42667123 -4.15813297 19.47439892 -5 22 C-7.0625 22.6875 -7.0625 22.6875 -9 23 C-7.89038557 17.96405759 -6.71932773 14.39276017 -4 10 C-2.58608748 6.69746787 -1.28342289 3.35514106 0 0 Z " fill="#85C2DD" transform="translate(218,100)"/>
<path d="M0 0 C2 1 2 1 2.8125 2.875 C3 5 3 5 1.6875 6.625 C1.130625 7.07875 0.57375 7.5325 0 8 C-2.30397187 10.30397187 -3.01524108 11.90504339 -4 15 C-3.938125 16.03125 -3.87625 17.0625 -3.8125 18.125 C-3.874375 19.07375 -3.93625 20.0225 -4 21 C-6.5 22.875 -6.5 22.875 -9 24 C-9 22.68 -9 21.36 -9 20 C-8.34 20 -7.68 20 -7 20 C-6.95875 18.88625 -6.9175 17.7725 -6.875 16.625 C-6.30196009 11.68804074 -3.96913029 8.19307805 -1.27734375 4.1015625 C0.17313085 2.1250386 0.17313085 2.1250386 0 0 Z " fill="#1C91CB" transform="translate(244,42)"/>
<path d="M0 0 C1.32 0 2.64 0 4 0 C4 0.66 4 1.32 4 2 C6.97 2.495 6.97 2.495 10 3 C10 3.66 10 4.32 10 5 C10.70125 5.0825 11.4025 5.165 12.125 5.25 C15.64876457 6.16924293 17.98302038 7.98868025 21 10 C23.7282504 10.78215588 23.7282504 10.78215588 26 11 C26.33 12.32 26.66 13.64 27 15 C20.81663908 13.35526763 15.60344134 10.07446913 10.125 6.875 C9.15046875 6.31167969 8.1759375 5.74835938 7.171875 5.16796875 C4.77838038 3.78349637 2.3879162 2.39406459 0 1 C0 0.67 0 0.34 0 0 Z " fill="#4B85A0" transform="translate(439,455)"/>
<path d="M0 0 C-1 2 -1 2 -2.8125 2.75 C-5.31051854 3.95915251 -5.31051854 3.95915251 -7.0625 7.125 C-8.0215625 8.548125 -8.0215625 8.548125 -9 10 C-9.99 10 -10.98 10 -12 10 C-10.48802737 1.18015964 -10.48802737 1.18015964 -7.1875 -1.4375 C-4.22706547 -2.19875459 -2.67668533 -1.33834267 0 0 Z " fill="#5AB0DB" transform="translate(158,246)"/>
<path d="M0 0 C2.98890949 2.41041088 3.94391214 3.78686613 4.9375 7.5625 C5 11 5 11 3.6875 12.75 C2.8521875 13.36875 2.8521875 13.36875 2 14 C1.01 15.485 1.01 15.485 0 17 C-1.97387813 12.23947038 -2.0070238 9.03511899 -1 4 C-0.34 4 0.32 4 1 4 C0.67 2.68 0.34 1.36 0 0 Z " fill="#5DAFD7" transform="translate(338,220)"/>
<path d="M0 0 C3.36826468 1.37289321 4.64697444 2.55791038 6.17578125 5.84375 C6.52833984 6.59527344 6.88089844 7.34679687 7.24414062 8.12109375 C7.59669922 8.90613281 7.94925781 9.69117188 8.3125 10.5 C8.68439453 11.28503906 9.05628906 12.07007813 9.43945312 12.87890625 C11.42659023 17.19362108 11.42659023 17.19362108 12 19 C11.67 19.66 11.34 20.32 11 21 C10.54625 20.195625 10.0925 19.39125 9.625 18.5625 C8.25274335 15.91143428 8.25274335 15.91143428 6 15 C5.33333333 13.66666667 4.66666667 12.33333333 4 11 C3.34 10.67 2.68 10.34 2 10 C1.3671875 7.71484375 1.3671875 7.71484375 0.875 4.9375 C0.70742188 4.01839844 0.53984375 3.09929687 0.3671875 2.15234375 C0.24601562 1.44207031 0.12484375 0.73179687 0 0 Z " fill="#A2D1E4" transform="translate(315,173)"/>
<path d="M0 0 C1.32 0 2.64 0 4 0 C4.45375 0.763125 4.9075 1.52625 5.375 2.3125 C7.40261568 5.6658644 9.44991832 6.50107662 13 8 C13 8.66 13 9.32 13 10 C6.79522136 8.06375702 0.89174281 5.74390859 -5 3 C-4.360625 2.690625 -3.72125 2.38125 -3.0625 2.0625 C-1.06389179 1.1654837 -1.06389179 1.1654837 0 0 Z " fill="#3488B0" transform="translate(394,358)"/>
<path d="M0 0 C0.66 0.33 1.32 0.66 2 1 C1.26394531 1.49628906 0.52789062 1.99257813 -0.23046875 2.50390625 C-6.02053511 6.53477147 -10.26042711 10.01668338 -14 16 C-14.33 16 -14.66 16 -15 16 C-15.22179212 12.74704886 -15.28601103 10.57202207 -13.8125 7.625 C-12 6 -12 6 -9.3125 5.75 C-8.549375 5.8325 -7.78625 5.915 -7 6 C-7 4.35 -7 2.7 -7 1 C-6.34 1.33 -5.68 1.66 -5 2 C-2.11785113 1.11785113 -2.11785113 1.11785113 0 0 Z " fill="#8DC8E2" transform="translate(233,292)"/>
<path d="M0 0 C0 0.66 0 1.32 0 2 C-0.845625 2.4125 -1.69125 2.825 -2.5625 3.25 C-5.02314316 4.50269106 -7.37667651 5.78937861 -9.75 7.1875 C-13 9 -13 9 -15 9 C-15.268125 9.639375 -15.53625 10.27875 -15.8125 10.9375 C-17 13 -17 13 -20 14 C-20 12 -20 12 -18.6875 10.5625 C-18.130625 10.046875 -17.57375 9.53125 -17 9 C-16.505 8.443125 -16.01 7.88625 -15.5 7.3125 C-14 6 -14 6 -11 6 C-11 4.68 -11 3.36 -11 2 C-10.21625 1.855625 -9.4325 1.71125 -8.625 1.5625 C-1.33333333 0 -1.33333333 0 0 0 Z " fill="#5DB4DF" transform="translate(143,281)"/>
<path d="M0 0 C1.65 0.33 3.3 0.66 5 1 C4.50168276 4.68754757 3.89932357 6.60490662 1 9 C1.33 9.66 1.66 10.32 2 11 C0.35 12.98 -1.3 14.96 -3 17 C-3.33 15.68 -3.66 14.36 -4 13 C-3.34 13 -2.68 13 -2 13 C-1.34 8.71 -0.68 4.42 0 0 Z " fill="#359BCF" transform="translate(219,98)"/>
<path d="M0 0 C0.33 0 0.66 0 1 0 C0.88637738 1.4800841 0.75877092 2.95910074 0.625 4.4375 C0.55539063 5.26121094 0.48578125 6.08492187 0.4140625 6.93359375 C0.27742187 7.61550781 0.14078125 8.29742187 0 9 C-0.99 9.495 -0.99 9.495 -2 10 C-2.268125 11.093125 -2.53625 12.18625 -2.8125 13.3125 C-4.1447647 17.44953248 -5.43775703 18.6564191 -9 21 C-6.76686274 13.55620912 -3.59727921 6.88023305 0 0 Z " fill="#A9D6E9" transform="translate(182,178)"/>
<path d="M0 0 C4.80172134 1.10808954 7.91161335 2.04686508 11 6 C11 6.66 11 7.32 11 8 C12.65 8.33 14.3 8.66 16 9 C16 9.66 16 10.32 16 11 C16.99 11 17.98 11 19 11 C18.67 11.66 18.34 12.32 18 13 C16.02 12.34 14.04 11.68 12 11 C12 10.34 12 9.68 12 9 C11.42765625 8.9071875 10.8553125 8.814375 10.265625 8.71875 C7.46102377 7.82901444 5.92576851 6.46625006 3.75 4.5 C3.04359375 3.8709375 2.3371875 3.241875 1.609375 2.59375 C1.07828125 2.0678125 0.5471875 1.541875 0 1 C0 0.67 0 0.34 0 0 Z " fill="#9ED0E5" transform="translate(228,186)"/>
<path d="M0 0 C0 3.74161103 -0.51338171 7.28953557 -1 11 C-1.66 11 -2.32 11 -3 11 C-3 11.66 -3 12.32 -3 13 C-2.34 13 -1.68 13 -1 13 C-1.33 13.99 -1.66 14.98 -2 16 C-3.65 16 -5.3 16 -7 16 C-2.89320388 2.89320388 -2.89320388 2.89320388 0 0 Z " fill="#63B4DB" transform="translate(38,449)"/>
<path d="M0 0 C2.2802512 3.04033494 3.71293873 5.24650329 5.1875 8.625 C5.70376953 9.78902344 5.70376953 9.78902344 6.23046875 10.9765625 C7 13 7 13 7 15 C5.68 14.67 4.36 14.34 3 14 C3 13.01 3 12.02 3 11 C2.01 11.33 1.02 11.66 0 12 C0 8.04 0 4.08 0 0 Z " fill="#8EC7E2" transform="translate(290,117)"/>
<path d="M0 0 C0 0.66 0 1.32 0 2 C0.99 2.33 1.98 2.66 3 3 C2.34 3.66 1.68 4.32 1 5 C1 5.99 1 6.98 1 8 C-3.23429756 6.68938409 -7.07407404 5.05643741 -11 3 C-10.401875 2.855625 -9.80375 2.71125 -9.1875 2.5625 C-6.0920876 1.76653681 -3.14498317 0 0 0 Z " fill="#2C85B2" transform="translate(413,434)"/>
<path d="M0 0 C6.625 -0.25 6.625 -0.25 10 2 C10 2.66 10 3.32 10 4 C10.71027344 4.19335938 11.42054688 4.38671875 12.15234375 4.5859375 C13.53099609 4.97652344 13.53099609 4.97652344 14.9375 5.375 C15.85402344 5.63023437 16.77054687 5.88546875 17.71484375 6.1484375 C20 7 20 7 21 9 C13.10043824 7.61026228 6.23576345 5.19646955 0 0 Z " fill="#367FA2" transform="translate(346,411)"/>
<path d="M0 0 C1.13643966 3.40931897 0.86747764 4.00335456 -0.4375 7.1875 C-0.72496094 7.90292969 -1.01242188 8.61835938 -1.30859375 9.35546875 C-1.53675781 9.89816406 -1.76492187 10.44085938 -2 11 C-2.66 11 -3.32 11 -4 11 C-4.2165625 11.8971875 -4.2165625 11.8971875 -4.4375 12.8125 C-4.8872439 14.56150404 -5.42892341 16.28677023 -6 18 C-6.99 18.33 -7.98 18.66 -9 19 C-8.45501461 15.07610521 -7.37376487 13.10415406 -5 10 C-3.98034573 7.67518826 -2.97940398 5.34205301 -2 3 C-1.34 2.01 -0.68 1.02 0 0 Z " fill="#98CCE1" transform="translate(114,310)"/>
<path d="M0 0 C1.32 0.33 2.64 0.66 4 1 C0.20389406 3.6675339 -3.70727128 6.03348473 -7.75 8.3125 C-9.16539063 9.11107422 -9.16539063 9.11107422 -10.609375 9.92578125 C-11.79273438 10.45751953 -11.79273438 10.45751953 -13 11 C-13.66 10.67 -14.32 10.34 -15 10 C-13.8553125 9.319375 -13.8553125 9.319375 -12.6875 8.625 C-8.28210643 6.22934359 -8.28210643 6.22934359 -6 2 C-4.02 2 -2.04 2 0 2 C0 1.34 0 0.68 0 0 Z " fill="#A5D5EB" transform="translate(57,455)"/>
<path d="M0 0 C1.65 0 3.3 0 5 0 C1.3897612 2.92521913 -2.54689328 5.0625098 -6.625 7.25 C-7.305625 7.62640625 -7.98625 8.0028125 -8.6875 8.390625 C-10.42525466 9.32475399 -12.21014959 10.17004594 -14 11 C-14.66 10.67 -15.32 10.34 -16 10 C-15.67 9.01 -15.34 8.02 -15 7 C-11.6875 5.875 -11.6875 5.875 -8 5 C-7.195625 4.79375 -6.39125 4.5875 -5.5625 4.375 C-5.046875 4.25125 -4.53125 4.1275 -4 4 C-4 3.34 -4 2.68 -4 2 C-2.68 2 -1.36 2 0 2 C0 1.34 0 0.68 0 0 Z " fill="#5993AF" transform="translate(91,437)"/>
<path d="M0 0 C6.0076892 3.11937709 9.76738861 5.7335798 12.25 12.3125 C12.4975 13.199375 12.745 14.08625 13 15 C10.5625 13.75 10.5625 13.75 8 12 C7.63837971 10.67405895 7.30271961 9.34061543 7 8 C5.68352881 7.30062468 4.34977849 6.63270867 3 6 C2.67 5.01 2.34 4.02 2 3 C1.34 2.67 0.68 2.34 0 2 C0 1.34 0 0.68 0 0 Z " fill="#5B9AB3" transform="translate(429,398)"/>
<path d="M0 0 C1.1446875 0.2475 1.1446875 0.2475 2.3125 0.5 C6.15760484 1.21536834 9.21800993 0.81772758 13 0 C13.33 1.65 13.66 3.3 14 5 C13.00419922 4.85691406 13.00419922 4.85691406 11.98828125 4.7109375 C5.28354475 3.79684678 5.28354475 3.79684678 -1 6 C-1 4 -1 4 0.5 2.375 C0.995 1.92125 1.49 1.4675 2 1 C1.34 0.67 0.68 0.34 0 0 Z " fill="#50A5D1" transform="translate(241,200)"/>
<path d="M0 0 C0.66 0 1.32 0 2 0 C2 1.98 2 3.96 2 6 C2.61875 6.165 3.2375 6.33 3.875 6.5 C7.27756949 8.90181375 7.22612026 12.00162134 8 16 C7.34 16.33 6.68 16.66 6 17 C5.34 14.69 4.68 12.38 4 10 C3.01 10.33 2.02 10.66 1 11 C-0.20272819 8.59454362 -0.10071472 7.05003047 -0.0625 4.375 C-0.05347656 3.55773438 -0.04445313 2.74046875 -0.03515625 1.8984375 C-0.02355469 1.27195313 -0.01195312 0.64546875 0 0 Z " fill="#4AA5D2" transform="translate(261,55)"/>
<path d="M0 0 C0.33 0.66 0.66 1.32 1 2 C1.66 2 2.32 2 3 2 C3.8394882 4.10171867 4.67139656 6.20646625 5.5 8.3125 C5.9640625 9.48425781 6.428125 10.65601563 6.90625 11.86328125 C8 15 8 15 8 18 C7.01 17.34 6.02 16.68 5 16 C4.8125 12.875 4.8125 12.875 5 10 C4.34 10 3.68 10 3 10 C3 9.34 3 8.68 3 8 C2.34 8 1.68 8 1 8 C0.67 5.36 0.34 2.72 0 0 Z " fill="#96C9E3" transform="translate(258,45)"/>
<path d="M0 0 C3.12572333 2.69159509 4.8036782 5.9634132 6.75 9.5625 C7.38421875 10.71878906 8.0184375 11.87507813 8.671875 13.06640625 C9.11015625 14.03449219 9.5484375 15.00257813 10 16 C9.67 16.66 9.34 17.32 9 18 C6 14.375 6 14.375 6 11 C4.02 10.34 2.04 9.68 0 9 C0.185625 8.2575 0.37125 7.515 0.5625 6.75 C0.99203108 4.05009037 0.85122974 2.55368923 0 0 Z " fill="#A2D4EB" transform="translate(392,320)"/>
<path d="M0 0 C1 3 1 3 1 5 C1.66 5 2.32 5 3 5 C3 5.99 3 6.98 3 8 C0 10 0 10 -4 10 C-3.43454163 6.04179141 -2.19097652 3.3340947 0 0 Z " fill="#9DCCE1" transform="translate(29,465)"/>
<path d="M0 0 C1.04029069 3.17074902 0.99365934 5.04936617 -0.125 8.1875 C-0.46917969 9.22970703 -0.46917969 9.22970703 -0.8203125 10.29296875 C-2 12 -2 12 -4.6171875 12.73828125 C-5.79667969 12.86783203 -5.79667969 12.86783203 -7 13 C-6.02325896 11.01963514 -5.04354018 9.04073867 -4.0625 7.0625 C-3.51722656 5.96035156 -2.97195312 4.85820312 -2.41015625 3.72265625 C-1 1 -1 1 0 0 Z " fill="#7DBFDE" transform="translate(54,420)"/>
<path d="M0 0 C0.66 0 1.32 0 2 0 C1.67 2.97 1.34 5.94 1 9 C-0.98 9.66 -2.96 10.32 -5 11 C-3.78065514 6.96678237 -2.44045073 3.45730521 0 0 Z " fill="#98CDE6" transform="translate(154,235)"/>
<path d="M0 0 C5.72554976 4.25906017 11.37992202 8.60280936 17 13 C16.01 13.495 16.01 13.495 15 14 C14.01 13.67 13.02 13.34 12 13 C11.67 12.34 11.34 11.68 11 11 C9.02477154 9.95191959 7.02518491 8.9479589 5 8 C5 7.01 5 6.02 5 5 C4.01 5 3.02 5 2 5 C1.34 3.35 0.68 1.7 0 0 Z " fill="#4985A2" transform="translate(407,380)"/>
<path d="M0 0 C0.33 0 0.66 0 1 0 C1.26252625 4.33168317 0.29243536 7.8803623 -1 12 C-1.66 12 -2.32 12 -3 12 C-2.9175 12.763125 -2.835 13.52625 -2.75 14.3125 C-3 17 -3 17 -5 18.8125 C-5.66 19.204375 -6.32 19.59625 -7 20 C-6.29937517 15.43263559 -4.68729793 11.4300495 -2.9375 7.1875 C-2.51500977 6.14819336 -2.51500977 6.14819336 -2.08398438 5.08789062 C-1.39325027 3.39032376 -0.69716272 1.69493688 0 0 Z " fill="#B2DDEF" transform="translate(227,77)"/>
<path d="M0 0 C3.84938867 3.59276276 5.91873633 5.88714467 6.125 11.25 C6.08375 12.1575 6.0425 13.065 6 14 C3.20248596 12.33400078 2.14357642 11.46797784 1.171875 8.30078125 C1.03265625 7.31464844 0.8934375 6.32851563 0.75 5.3125 C0.60046875 4.31863281 0.4509375 3.32476562 0.296875 2.30078125 C0.19890625 1.54152344 0.1009375 0.78226562 0 0 Z " fill="#5DA5C8" transform="translate(455,438)"/>
<path d="M0 0 C2.43836709 2.43836709 3.63091698 4.92380744 5.1875 8 C5.73792969 9.0725 6.28835938 10.145 6.85546875 11.25 C7.42201172 12.61125 7.42201172 12.61125 8 14 C7.67 14.66 7.34 15.32 7 16 C6.34 14.35 5.68 12.7 5 11 C4.01 11.33 3.02 11.66 2 12 C0.40861915 7.82262526 -0.21278058 4.46839215 0 0 Z " fill="#9CD3EA" transform="translate(373,283)"/>
<path d="M0 0 C2.31 0 4.62 0 7 0 C4.68037291 2.31962709 2.53490348 3.30985217 -0.4375 4.6875 C-1.40558594 5.14511719 -2.37367187 5.60273438 -3.37109375 6.07421875 C-6 7 -6 7 -9 6 C-8.34 6 -7.68 6 -7 6 C-7 5.34 -7 4.68 -7 4 C-4.69 3.34 -2.38 2.68 0 2 C0 1.34 0 0.68 0 0 Z " fill="#4582A1" transform="translate(119,423)"/>
<path d="M0 0 C0.94875 0.04125 1.8975 0.0825 2.875 0.125 C0.73241777 2.47514488 -1.25129322 3.84317126 -4.125 5.1875 C-6.65245252 6.37942363 -8.77789341 7.56026227 -11.125 9.125 C-12.115 8.795 -13.105 8.465 -14.125 8.125 C-13.49851563 7.71507812 -12.87203125 7.30515625 -12.2265625 6.8828125 C-11.40929687 6.34398437 -10.59203125 5.80515625 -9.75 5.25 C-8.53183594 4.44949219 -8.53183594 4.44949219 -7.2890625 3.6328125 C-2.20151715 0.08806069 -2.20151715 0.08806069 0 0 Z " fill="#4BB0E3" transform="translate(171.125,263.875)"/>
<path d="M0 0 C0.33 0.66 0.66 1.32 1 2 C0.36328125 3.875 0.36328125 3.875 -0.6875 6 C-1.18830078 7.051875 -1.18830078 7.051875 -1.69921875 8.125 C-3.21910635 10.31582897 -4.55687434 11.01246289 -7 12 C-5.80805531 6.47371099 -4.4008703 3.82180842 0 0 Z " fill="#7ABEDF" transform="translate(90,357)"/>
<path d="M0 0 C1.44098611 0.76429661 2.87766054 1.53672555 4.3125 2.3125 C5.11300781 2.74175781 5.91351563 3.17101562 6.73828125 3.61328125 C9 5 9 5 12 8 C7.545 7.01 7.545 7.01 3 6 C3 5.01 3 4.02 3 3 C1.68 3 0.36 3 -1 3 C-0.67 2.01 -0.34 1.02 0 0 Z " fill="#3480A4" transform="translate(380,362)"/>
<path d="M0 0 C4.15456665 2.07728332 5.11663488 2.93589633 7 7 C6.67 7.99 6.34 8.98 6 10 C4.68 9.67 3.36 9.34 2 9 C1.34 6.03 0.68 3.06 0 0 Z " fill="#499BBF" transform="translate(448,428)"/>
<path d="M0 0 C5.84865687 2.00525378 9.76203898 5.60507746 14 10 C13.01 10.495 13.01 10.495 12 11 C11.566875 10.525625 11.13375 10.05125 10.6875 9.5625 C8.97690387 7.76313043 8.97690387 7.76313043 6 7 C6 6.34 6 5.68 6 5 C5.01 5 4.02 5 3 5 C3 4.34 3 3.68 3 3 C2.01 2.67 1.02 2.34 0 2 C0 1.34 0 0.68 0 0 Z " fill="#417D99" transform="translate(392,370)"/>
<path d="M0 0 C0.66 0.33 1.32 0.66 2 1 C1.23439544 2.2739902 0.46227374 3.54406512 -0.3125 4.8125 C-0.74175781 5.52019531 -1.17101562 6.22789062 -1.61328125 6.95703125 C-2.92506467 8.88960231 -4.29403845 10.41410612 -6 12 C-5.5644909 7.47070534 -5.2162422 4.34489189 -2 1 C-1.34 0.67 -0.68 0.34 0 0 Z " fill="#80BEDB" transform="translate(216,308)"/>
<path d="M0 0 C4.77609498 1.64178265 8.79382904 4.26546702 13 7 C12.01 7.495 12.01 7.495 11 8 C9.66666667 7.33333333 8.33333333 6.66666667 7 6 C5.00889599 5.61709538 3.00899487 5.27395385 1 5 C0.67 3.35 0.34 1.7 0 0 Z " fill="#AAD7EB" transform="translate(207,180)"/>
<path d="M0 0 C3.33511388 2.9901021 5.21521119 5.89498574 7 10 C7 10.66 7 11.32 7 12 C4.525 11.01 4.525 11.01 2 10 C2.33 8.35 2.66 6.7 3 5 C2.01 4.67 1.02 4.34 0 4 C0 2.68 0 1.36 0 0 Z " fill="#8AB2C5" transform="translate(415,364)"/>
<path d="M0 0 C1.35208914 0.62775567 2.68163705 1.30419733 4 2 C4.70125 2.350625 5.4025 2.70125 6.125 3.0625 C9.08292363 6.11902109 9.34624733 9.89684178 10 14 C7.43180791 11.53140539 5.79488628 9.0872044 4 6 C2.67541292 3.99419671 1.3440093 1.99284138 0 0 Z " fill="#AFDBEA" transform="translate(278,302)"/>
<path d="M0 0 C1.32 0.66 2.64 1.32 4 2 C4 3.32 4 4.64 4 6 C-0.31392226 5.5206753 -2.16569547 4.2542015 -5 1 C-2.525 1.495 -2.525 1.495 0 2 C0 1.34 0 0.68 0 0 Z " fill="#8DBBCF" transform="translate(471,469)"/>
<path d="M0 0 C1.32 0.33 2.64 0.66 4 1 C4 4.3 4 7.6 4 11 C0.88776687 6.85035583 0.47996422 4.99162787 0 0 Z " fill="#79BDDB" transform="translate(289,315)"/>
<path d="M0 0 C1.27351308 2.54702616 0.80191925 3.4282945 0.0625 6.125 C-0.13214844 6.84945313 -0.32679687 7.57390625 -0.52734375 8.3203125 C-0.76130859 9.15175781 -0.76130859 9.15175781 -1 10 C-1.95132813 10.18369141 -1.95132813 10.18369141 -2.921875 10.37109375 C-5.19716567 10.80696091 -5.19716567 10.80696091 -6.25 13.0625 C-6.4975 13.701875 -6.745 14.34125 -7 15 C-6.28889779 9.13340676 -3.23010603 4.84515904 0 0 Z " fill="#B2DCEF" transform="translate(122,295)"/>
<path d="M0 0 C0.99 0.33 1.98 0.66 3 1 C1.04414675 2.00484204 -0.91476237 3.00373805 -2.875 4 C-3.96554688 4.556875 -5.05609375 5.11375 -6.1796875 5.6875 C-9 7 -9 7 -11 7 C-11 6.34 -11 5.68 -11 5 C-10.34 5 -9.68 5 -9 5 C-9 4.34 -9 3.68 -9 3 C-7.88625 2.690625 -6.7725 2.38125 -5.625 2.0625 C-2.2054845 1.17673517 -2.2054845 1.17673517 0 0 Z " fill="#4986A1" transform="translate(107,430)"/>
<path d="M0 0 C0.33 1.32 0.66 2.64 1 4 C4.3 4 7.6 4 11 4 C11.33 4.99 11.66 5.98 12 7 C3.42857143 6 3.42857143 6 0 5 C0 3.35 0 1.7 0 0 Z " fill="#3A7794" transform="translate(299,395)"/>
<path d="M0 0 C3.91402949 1.26941497 5.79072873 2.51167694 8 6 C6 7 6 7 2.875 6.0625 C1.92625 5.711875 0.9775 5.36125 0 5 C0 3.35 0 1.7 0 0 Z " fill="#5DB4E2" transform="translate(348,247)"/>
<path d="M0 0 C1.98 0.66 3.96 1.32 6 2 C6 2.66 6 3.32 6 4 C6.99 4.33 7.98 4.66 9 5 C9.33 6.65 9.66 8.3 10 10 C2.51708428 3.84965831 2.51708428 3.84965831 0 0 Z " fill="#B5DCED" transform="translate(198,158)"/>
<path d="M0 0 C0.99 0.99 1.98 1.98 3 3 C2.54625 3.598125 2.0925 4.19625 1.625 4.8125 C0.36704087 6.50590652 -0.82984724 8.24477086 -2 10 C-2.66 8.02 -3.32 6.04 -4 4 C-2.68 3.67 -1.36 3.34 0 3 C0 2.01 0 1.02 0 0 Z " fill="#57B5DE" transform="translate(340,227)"/>
<path d="M0 0 C1.28179927 2.56359854 0.87670752 3.71958533 0.3125 6.5 C0.16425781 7.2940625 0.01601562 8.088125 -0.13671875 8.90625 C-1 11 -1 11 -3.08203125 12.28125 C-3.71496094 12.5184375 -4.34789062 12.755625 -5 13 C-4.54554036 11.58208592 -4.08625056 10.16571954 -3.625 8.75 C-3.24214844 7.56664063 -3.24214844 7.56664063 -2.8515625 6.359375 C-2.04826333 4.13372042 -1.10288338 2.09068328 0 0 Z " fill="#A8D7E9" transform="translate(218,100)"/>
<path d="M0 0 C0.66 0.33 1.32 0.66 2 1 C1.814375 1.78375 1.62875 2.5675 1.4375 3.375 C0.74037734 5.97089775 0.74037734 5.97089775 2 8 C1.01 8 0.02 8 -1 8 C-1.33 9.32 -1.66 10.64 -2 12 C-3.15957207 8.52128379 -2.77456651 7.65780355 -1.5625 4.3125 C-1.13130859 3.10013672 -1.13130859 3.10013672 -0.69140625 1.86328125 C-0.46324219 1.24839844 -0.23507813 0.63351563 0 0 Z " fill="#5BADD8" transform="translate(158,229)"/>
<path d="M0 0 C2.97 0.99 5.94 1.98 9 3 C9 4.65 9 6.3 9 8 C5.01824456 5.89851796 2.64960955 3.63094642 0 0 Z " fill="#ACDAEB" transform="translate(219,178)"/>
<path d="M0 0 C2.96052484 3.36423277 3.92289822 6.69159287 5 11 C2.525 10.01 2.525 10.01 0 9 C0 6.03 0 3.06 0 0 Z " fill="#9FD0E8" transform="translate(277,87)"/>
<path d="M0 0 C5.445 1.485 5.445 1.485 11 3 C11.33 4.32 11.66 5.64 12 7 C7.39104317 5.68315519 3.85859765 3.84801255 0 1 C0 0.67 0 0.34 0 0 Z " fill="#5A9BB6" transform="translate(454,463)"/>
<path d="M0 0 C0.33 0 0.66 0 1 0 C0.93967927 1.4386494 0.85079867 2.87611902 0.75 4.3125 C0.70359375 5.11300781 0.6571875 5.91351563 0.609375 6.73828125 C-0.17908407 9.66467743 -1.4759968 10.44016602 -4 12 C-3.52494322 10.18641846 -3.04483958 8.37415821 -2.5625 6.5625 C-2.29566406 5.55316406 -2.02882812 4.54382813 -1.75390625 3.50390625 C-1 1 -1 1 0 0 Z " fill="#9CCDE3" transform="translate(167,209)"/>
<path d="M0 0 C2.97 0.99 5.94 1.98 9 3 C9 3.66 9 4.32 9 5 C9.66 5.33 10.32 5.66 11 6 C10.01 6.33 9.02 6.66 8 7 C7.62875 6.525625 7.2575 6.05125 6.875 5.5625 C4.37353038 3.47794198 2.18406582 3.35378509 -1 3 C-0.67 2.01 -0.34 1.02 0 0 Z " fill="#54A6CE" transform="translate(212,185)"/>
<path d="M0 0 C1 2 1 2 0.546875 3.91015625 C0.28390625 4.62042969 0.0209375 5.33070313 -0.25 6.0625 C-0.62898438 7.13177734 -0.62898438 7.13177734 -1.015625 8.22265625 C-2 10 -2 10 -5 11 C-3.92289822 6.69159287 -2.96052484 3.36423277 0 0 Z " fill="#9FD0E4" transform="translate(104,329)"/>
<path d="M0 0 C3.2542015 2.83430453 4.5206753 4.68607774 5 9 C4.34 8.67 3.68 8.34 3 8 C3 7.34 3 6.68 3 6 C1.68 5.67 0.36 5.34 -1 5 C-0.67 3.35 -0.34 1.7 0 0 Z " fill="#8CCAE5" transform="translate(386,309)"/>
<path d="M0 0 C0 0.66 0 1.32 0 2 C-3.72965139 4.03435531 -5.66905042 5 -10 5 C-9 2 -9 2 -6.6875 0.8125 C-4 0 -4 0 0 0 Z " fill="#4DB1E2" transform="translate(143,281)"/>
<path d="M0 0 C0.66 0.66 1.32 1.32 2 2 C-0.25 4.0625 -0.25 4.0625 -3 6 C-5.3125 5.75 -5.3125 5.75 -7 5 C-4.78065836 1.67098753 -3.65316671 1.24976756 0 0 Z " fill="#4CB1E1" transform="translate(155,272)"/>
<path d="M0 0 C-5.17578125 3.22265625 -5.17578125 3.22265625 -7 4 C-7.99 3.67 -8.98 3.34 -10 3 C-9.67 2.01 -9.34 1.02 -9 0 C-2.25 -1.125 -2.25 -1.125 0 0 Z " fill="#97CDE8" transform="translate(71,451)"/>
<path d="M0 0 C2.31 0 4.62 0 7 0 C7 0.99 7 1.98 7 3 C7.99 3 8.98 3 10 3 C10 3.66 10 4.32 10 5 C8.51800098 4.55090939 7.03944764 4.09043436 5.5625 3.625 C4.73878906 3.36976563 3.91507812 3.11453125 3.06640625 2.8515625 C1 2 1 2 0 0 Z " fill="#3A81A1" transform="translate(392,431)"/>
<path d="M0 0 C0.66 0.33 1.32 0.66 2 1 C2 1.66 2 2.32 2 3 C1.34 3 0.68 3 0 3 C0.66 4.32 1.32 5.64 2 7 C0.02 6.34 -1.96 5.68 -4 5 C-4 4.34 -4 3.68 -4 3 C-2 1.375 -2 1.375 0 0 Z " fill="#308CBB" transform="translate(390,424)"/>
<path d="M0 0 C3.44216672 2.6598561 3.99504674 5.90288286 5 10 C1.125 8.25 1.125 8.25 0 6 C-0.039992 4.00039988 -0.04346799 1.99952758 0 0 Z " fill="#98CCE4" transform="translate(402,338)"/>
<path d="M0 0 C2.91227269 3.28804981 4.49701212 5.59885603 5 10 C3.0625 9.5 3.0625 9.5 1 8 C0.31209578 5.30341548 0.18053536 2.7982981 0 0 Z " fill="#AAD7EA" transform="translate(360,259)"/>
<path d="M0 0 C1.32 1.65 2.64 3.3 4 5 C3.34 6.32 2.68 7.64 2 9 C1.34 8.67 0.68 8.34 0 8 C0 5.36 0 2.72 0 0 Z " fill="#5CAED3" transform="translate(323,189)"/>
<path d="M0 0 C0.33 0 0.66 0 1 0 C0.93993922 1.45947705 0.8511311 2.91779272 0.75 4.375 C0.70359375 5.18710938 0.6571875 5.99921875 0.609375 6.8359375 C0 9 0 9 -2.046875 10.2890625 C-3.01367188 10.64097656 -3.01367188 10.64097656 -4 11 C-3.52269162 9.5410574 -3.04308958 8.08286504 -2.5625 6.625 C-2.29566406 5.81289062 -2.02882812 5.00078125 -1.75390625 4.1640625 C-1 2 -1 2 0 0 Z " fill="#BFE3F2" transform="translate(182,178)"/>
<path d="M0 0 C1.98 0.495 1.98 0.495 4 1 C3.64950425 4.24208567 3.43778819 5.61527704 0.9375 7.8125 C0.298125 8.204375 -0.34125 8.59625 -1 9 C-0.67 6.03 -0.34 3.06 0 0 Z " fill="#2297D0" transform="translate(220,98)"/>
<path d="M0 0 C0 3.60777515 -0.9904432 5.06295544 -3 8 C-3.99 8.495 -3.99 8.495 -5 9 C-5 7.68 -5 6.36 -5 5 C-4.34 5 -3.68 5 -3 5 C-3 3.68 -3 2.36 -3 1 C-2.01 0.67 -1.02 0.34 0 0 Z " fill="#1E92CC" transform="translate(229,84)"/>
<path d="M0 0 C0.89694794 3.58779175 1.08304117 6.34618837 1 10 C-0.32 9.67 -1.64 9.34 -3 9 C-2.01 6.03 -1.02 3.06 0 0 Z " fill="#3296C7" transform="translate(117,306)"/>
<path d="M0 0 C2.31 0.33 4.62 0.66 7 1 C7.33 2.32 7.66 3.64 8 5 C5.83125748 4.49396008 4.00032373 4.00016187 2 3 C2 2.34 2 1.68 2 1 C1.34 0.67 0.68 0.34 0 0 Z " fill="#67B4D9" transform="translate(260,288)"/>
<path d="M0 0 C2.94695474 2.94695474 4.38513421 5.2050654 6 9 C5.67 9.66 5.34 10.32 5 11 C4.01 10.67 3.02 10.34 2 10 C1.34 6.7 0.68 3.4 0 0 Z " fill="#C0E0EE" transform="translate(347,234)"/>
<path d="M0 0 C2.64 0.99 5.28 1.98 8 3 C8 3.99 8 4.98 8 6 C5.21788056 5.62403791 3.4120716 5.32681541 1.1875 3.5625 C0 2 0 2 0 0 Z " fill="#5FABD1" transform="translate(199,176)"/>
<path d="M0 0 C2.52259061 1.97420135 2.9929808 2.96745642 3.6875 6.1875 C3.790625 7.115625 3.89375 8.04375 4 9 C2 7.875 2 7.875 0 6 C-0.25 2.8125 -0.25 2.8125 0 0 Z " fill="#667F8A" transform="translate(469,461)"/>
<path d="M0 0 C-0.66 1.32 -1.32 2.64 -2 4 C-4.4375 3.625 -4.4375 3.625 -7 3 C-7.33 2.34 -7.66 1.68 -8 1 C-3.375 -1.125 -3.375 -1.125 0 0 Z " fill="#3592BF" transform="translate(391,356)"/>
<path d="M0 0 C0.99 0 1.98 0 3 0 C3.33 3.3 3.66 6.6 4 10 C3.34 9.67 2.68 9.34 2 9 C1.3671875 6.93359375 1.3671875 6.93359375 0.875 4.4375 C0.70742188 3.61121094 0.53984375 2.78492188 0.3671875 1.93359375 C0.24601562 1.29550781 0.12484375 0.65742188 0 0 Z " fill="#71A5BE" transform="translate(293,326)"/>
<path d="M0 0 C1.5 1.0625 1.5 1.0625 3 3 C3.1875 6.6875 3.1875 6.6875 3 10 C0.64551835 7.44931155 0.01672076 6.28982642 -0.1875 2.75 C-0.125625 1.8425 -0.06375 0.935 0 0 Z " fill="#A0CEE2" transform="translate(342,224)"/>
<path d="M0 0 C1.5 1.3125 1.5 1.3125 3 3 C3 3.99 3 4.98 3 6 C0.5625 5.625 0.5625 5.625 -2 5 C-2.33 4.34 -2.66 3.68 -3 3 C-2.01 2.01 -1.02 1.02 0 0 Z " fill="#2390C7" transform="translate(468,465)"/>
<path d="M0 0 C0.93423645 3.01031744 1.04449911 3.86650268 0 7 C-2.0625 7.6875 -2.0625 7.6875 -4 8 C-1.125 1.125 -1.125 1.125 0 0 Z " fill="#99CCE6" transform="translate(43,440)"/>
<path d="M0 0 C2.0245738 1.93254772 3.42105792 3.63158688 5 6 C4.67 6.99 4.34 7.98 4 9 C2 7.875 2 7.875 0 6 C-0.25 2.8125 -0.25 2.8125 0 0 Z " fill="#AEDBEC" transform="translate(365,269)"/>
<path d="M0 0 C1.98 0.99 1.98 0.99 4 2 C4 3.65 4 5.3 4 7 C3.01 7 2.02 7 1 7 C0.67 4.69 0.34 2.38 0 0 Z " fill="#86C0DC" transform="translate(356,254)"/>
<path d="M0 0 C0.33 0 0.66 0 1 0 C1 1.65 1 3.3 1 5 C1.99 5 2.98 5 4 5 C4 6.32 4 7.64 4 9 C2.68 8.67 1.36 8.34 0 8 C0 5.36 0 2.72 0 0 Z " fill="#5FB0D4" transform="translate(348,239)"/>
<path d="M0 0 C0.66 0 1.32 0 2 0 C2.66 1.65 3.32 3.3 4 5 C2.35 5.33 0.7 5.66 -1 6 C-1.042721 4.33388095 -1.04063832 2.66617115 -1 1 C-0.67 0.67 -0.34 0.34 0 0 Z " fill="#2D99CF" transform="translate(210,122)"/>
<path d="M0 0 C-5.2734375 3.22265625 -5.2734375 3.22265625 -7 4 C-7.66 3.67 -8.32 3.34 -9 3 C-8.67 2.01 -8.34 1.02 -8 0 C-2.25 -1.125 -2.25 -1.125 0 0 Z " fill="#72ABC1" transform="translate(84,444)"/>
<path d="M0 0 C1.04973814 4.19895255 0.72795155 6.79405774 0 11 C-0.99 11.33 -1.98 11.66 -3 12 C-2.01 8.04 -1.02 4.08 0 0 Z " fill="#6CB4D6" transform="translate(229,73)"/>
<path d="M0 0 C0.33 0.66 0.66 1.32 1 2 C0.67 2.66 0.34 3.32 0 4 C0.99 4.33 1.98 4.66 3 5 C1.02 5.99 1.02 5.99 -1 7 C-2 4 -2 4 -1.0625 1.8125 C-0.5365625 0.9153125 -0.5365625 0.9153125 0 0 Z " fill="#2792C9" transform="translate(38,451)"/>
<path d="M0 0 C5.53846154 0.49230769 5.53846154 0.49230769 7.875 3.0625 C8.431875 4.0215625 8.431875 4.0215625 9 5 C5.22454612 3.90931332 2.52956528 3.0916909 0 0 Z " fill="#4685A2" transform="translate(430,450)"/>
<path d="M0 0 C0.62109375 1.796875 0.62109375 1.796875 1 4 C-0.9375 7.25 -0.9375 7.25 -3 10 C-3.33 9.34 -3.66 8.68 -4 8 C-3.22265625 6.0546875 -3.22265625 6.0546875 -2.0625 3.875 C-1.49208984 2.78832031 -1.49208984 2.78832031 -0.91015625 1.6796875 C-0.60980469 1.12539062 -0.30945313 0.57109375 0 0 Z " fill="#D7F1FA" transform="translate(172,199)"/>
<path d="M0 0 C0.33 1.65 0.66 3.3 1 5 C-3.875 3.25 -3.875 3.25 -5 1 C-3 0 -3 0 0 0 Z " fill="#4AABDC" transform="translate(254,200)"/>
<path d="M0 0 C0.99 0.33 1.98 0.66 3 1 C1.92598892 3.91517292 1.22189824 5.77810176 -1 8 C-0.67 5.36 -0.34 2.72 0 0 Z " fill="#4CA1D1" transform="translate(183,179)"/>
<path d="M0 0 C0.99 0.33 1.98 0.66 3 1 C2.67 2.98 2.34 4.96 2 7 C1.01 6.67 0.02 6.34 -1 6 C-0.67 4.02 -0.34 2.04 0 0 Z " fill="#329BCB" transform="translate(204,136)"/>
</svg>
